# Blender v2.93.5 OBJ File: '4x4shelf.blend'
# www.blender.org
mtllib 4x4shelf.mtl
o Cube
v 0.650000 1.600000 -0.300000
v 0.650000 0.000000 -0.300000
v 0.650000 1.600000 0.300000
v 0.650000 0.000000 0.300000
v -0.650000 1.600000 -0.300000
v -0.650000 0.000000 -0.300000
v -0.650000 1.600000 0.300000
v -0.650000 0.000000 0.300000
v 0.650000 1.200000 -0.300000
v 0.650000 0.800000 -0.300000
v 0.650000 0.400000 -0.300000
v -0.650000 1.200000 -0.300000
v -0.650000 0.800000 -0.300000
v -0.650000 0.400000 -0.300000
v 0.325000 0.000000 -0.326414
v 0.000000 0.000000 -0.326414
v -0.325000 0.000000 -0.326414
v -0.325000 1.600000 -0.326414
v 0.000000 1.600000 -0.326414
v 0.325000 1.600000 -0.326414
v -0.325000 0.400000 -0.300000
v 0.000000 0.400000 -0.300000
v 0.325000 0.400000 -0.300000
v -0.325000 0.800000 -0.300000
v 0.000000 0.800000 -0.300000
v 0.325000 0.800000 -0.300000
v -0.325000 1.200000 -0.300000
v 0.000000 1.200000 -0.300000
v 0.325000 1.200000 -0.300000
v -0.650000 0.368695 0.300000
v -0.650000 0.431305 0.300000
v -0.650000 0.400000 0.242281
v -0.650000 0.400000 0.273586
v -0.650000 0.768695 0.300000
v -0.650000 0.831305 0.300000
v -0.650000 0.800000 0.242281
v -0.650000 0.800000 0.273586
v -0.650000 1.168695 0.300000
v -0.650000 1.231305 0.300000
v -0.650000 1.200000 0.242281
v -0.650000 1.200000 0.273586
v 0.650000 1.231305 0.300000
v 0.650000 1.168695 0.300000
v 0.650000 1.200000 0.242281
v 0.650000 1.200000 0.273586
v 0.650000 0.831305 0.300000
v 0.650000 0.768695 0.300000
v 0.650000 0.800000 0.242281
v 0.650000 0.800000 0.273586
v 0.650000 0.431305 0.300000
v 0.650000 0.368695 0.300000
v 0.650000 0.400000 0.242281
v 0.650000 0.400000 0.273586
v 0.293695 1.600000 0.300000
v 0.356305 1.600000 0.300000
v 0.325000 1.600000 0.242281
v 0.325000 1.600000 0.273586
v -0.031305 1.600000 0.300000
v 0.031305 1.600000 0.300000
v 0.000000 1.600000 0.242281
v 0.000000 1.600000 0.273586
v -0.356305 1.600000 0.300000
v -0.293695 1.600000 0.300000
v -0.325000 1.600000 0.242281
v -0.325000 1.600000 0.273586
v -0.293695 0.000000 0.300000
v -0.356305 0.000000 0.300000
v -0.325000 0.000000 0.242281
v -0.325000 0.000000 0.273586
v 0.031305 0.000000 0.300000
v -0.031305 0.000000 0.300000
v 0.000000 0.000000 0.242281
v 0.000000 0.000000 0.273586
v 0.356305 0.000000 0.300000
v 0.293695 0.000000 0.300000
v 0.325000 0.000000 0.242281
v 0.325000 0.000000 0.273586
v 0.356305 0.368695 0.300000
v 0.356305 0.431305 0.300000
v 0.293695 0.431305 0.300000
v 0.293695 0.368695 0.300000
v 0.356305 0.400000 0.273586
v 0.325000 0.400000 0.273586
v 0.325000 0.431305 0.273586
v 0.293695 0.400000 0.273586
v 0.325000 0.368695 0.273586
v 0.031305 0.368695 0.300000
v 0.031305 0.431305 0.300000
v -0.031305 0.431305 0.300000
v -0.031305 0.368695 0.300000
v 0.031305 0.400000 0.273586
v 0.000000 0.400000 0.273586
v 0.000000 0.431305 0.273586
v -0.031305 0.400000 0.273586
v 0.000000 0.368695 0.273586
v -0.356305 0.368695 0.300000
v -0.293695 0.368695 0.300000
v -0.293695 0.431305 0.300000
v -0.356305 0.431305 0.300000
v -0.325000 0.368695 0.273586
v -0.325000 0.400000 0.273586
v -0.293695 0.400000 0.273586
v -0.325000 0.431305 0.273586
v -0.356305 0.400000 0.273586
v 0.356305 0.768695 0.300000
v 0.356305 0.831305 0.300000
v 0.293695 0.831305 0.300000
v 0.293695 0.768695 0.300000
v 0.356305 0.800000 0.273586
v 0.325000 0.800000 0.273586
v 0.325000 0.831305 0.273586
v 0.293695 0.800000 0.273586
v 0.325000 0.768695 0.273586
v 0.031305 0.768695 0.300000
v 0.031305 0.831305 0.300000
v -0.031305 0.831305 0.300000
v -0.031305 0.768695 0.300000
v 0.031305 0.800000 0.273586
v 0.000000 0.800000 0.273586
v 0.000000 0.831305 0.273586
v -0.031305 0.800000 0.273586
v 0.000000 0.768695 0.273586
v -0.356305 0.768695 0.300000
v -0.293695 0.768695 0.300000
v -0.293695 0.831305 0.300000
v -0.356305 0.831305 0.300000
v -0.325000 0.768695 0.273586
v -0.325000 0.800000 0.273586
v -0.293695 0.800000 0.273586
v -0.325000 0.831305 0.273586
v -0.356305 0.800000 0.273586
v 0.356305 1.231305 0.300000
v 0.293695 1.231305 0.300000
v 0.293695 1.168695 0.300000
v 0.356305 1.168695 0.300000
v 0.325000 1.231305 0.273586
v 0.325000 1.200000 0.273586
v 0.293695 1.200000 0.273586
v 0.325000 1.168695 0.273586
v 0.356305 1.200000 0.273586
v 0.031305 1.231305 0.300000
v -0.031305 1.231305 0.300000
v -0.031305 1.168695 0.300000
v 0.031305 1.168695 0.300000
v 0.000000 1.231305 0.273586
v 0.000000 1.200000 0.273586
v -0.031305 1.200000 0.273586
v 0.000000 1.168695 0.273586
v 0.031305 1.200000 0.273586
v -0.356305 1.231305 0.300000
v -0.356305 1.168695 0.300000
v -0.293695 1.168695 0.300000
v -0.293695 1.231305 0.300000
v -0.356305 1.200000 0.273586
v -0.325000 1.200000 0.273586
v -0.325000 1.168695 0.273586
v -0.293695 1.200000 0.273586
v -0.325000 1.231305 0.273586
vt 0.636343 0.136418
vt 0.636343 0.210271
vt 0.507114 0.210271
vt 0.500000 0.203157
vt 0.500000 0.136418
vt 0.220200 0.431828
vt 0.136418 0.431828
vt 0.136418 0.365090
vt 0.220200 0.365090
vt 0.220200 0.203157
vt 0.136418 0.203157
vt 0.136418 0.136418
vt 0.220200 0.136418
vt 0.401991 0.350862
vt 0.325323 0.350862
vt 0.325323 0.291237
vt 0.401991 0.291237
vt 0.311095 0.431828
vt 0.234428 0.431828
vt 0.234428 0.365090
vt 0.311095 0.365090
vt 0.909029 0.357976
vt 0.999925 0.357976
vt 0.999925 0.431828
vt 0.909029 0.431828
vt 0.636343 0.357976
vt 0.727238 0.357976
vt 0.727239 0.431828
vt 0.636343 0.431828
vt 0.818134 0.357976
vt 0.818134 0.431828
vt 0.000075 0.431828
vt 0.000075 0.357976
vt 0.129305 0.357976
vt 0.500000 0.431828
vt 0.416218 0.431828
vt 0.416218 0.365090
vt 0.500000 0.365090
vt 0.227314 0.568172
vt 0.136418 0.568172
vt 0.227314 0.438942
vt 0.401991 0.203157
vt 0.325323 0.203157
vt 0.325323 0.136418
vt 0.401991 0.136418
vt 0.416218 0.136418
vt 0.409105 0.129305
vt 0.409105 0.000075
vt 0.500000 0.000075
vt 0.227314 0.129305
vt 0.136418 0.000075
vt 0.227314 0.000075
vt 0.318209 0.129305
vt 0.318209 0.000075
vt 0.311095 0.203157
vt 0.234428 0.203157
vt 0.234428 0.136418
vt 0.311095 0.136418
vt 0.401991 0.431828
vt 0.325323 0.431828
vt 0.325323 0.365090
vt 0.401991 0.365090
vt 0.311095 0.277010
vt 0.234428 0.277010
vt 0.234428 0.217385
vt 0.311095 0.217385
vt 0.409105 0.568172
vt 0.318209 0.568172
vt 0.318209 0.438942
vt 0.409105 0.438942
vt 0.401991 0.277010
vt 0.325323 0.277010
vt 0.325323 0.217385
vt 0.401991 0.217385
vt 0.311095 0.350862
vt 0.234428 0.350862
vt 0.234428 0.291237
vt 0.311095 0.291237
vt 0.500000 0.568172
vt 0.507114 0.357976
vt 0.636343 0.284123
vt 0.507114 0.284123
vt 0.500000 0.277010
vt 0.500000 0.217385
vt 0.818134 0.136418
vt 0.909029 0.136418
vt 0.909029 0.210271
vt 0.818134 0.210271
vt 0.909029 0.284123
vt 0.818134 0.284123
vt 0.727238 0.136418
vt 0.727238 0.210271
vt 0.727238 0.284123
vt 0.999925 0.136418
vt 0.999925 0.210271
vt 0.999925 0.284123
vt 0.416218 0.277010
vt 0.416218 0.217385
vt 0.500000 0.350862
vt 0.500000 0.291237
vt 0.416218 0.350862
vt 0.416218 0.291237
vt 0.000075 0.284123
vt 0.129305 0.284123
vt 0.136418 0.291237
vt 0.136418 0.350862
vt 0.000075 0.210271
vt 0.000075 0.136418
vt 0.129305 0.210271
vt 0.220200 0.350862
vt 0.220200 0.291237
vt 0.136418 0.217385
vt 0.136418 0.277010
vt 0.220200 0.277010
vt 0.220200 0.217385
vt 0.409105 0.136418
vt 0.318209 0.136418
vt 0.227314 0.136418
vt 0.227314 0.431828
vt 0.318209 0.431828
vt 0.409105 0.431828
vt 0.136418 0.357976
vt 0.136418 0.284123
vt 0.136418 0.210271
vt 0.500000 0.210271
vt 0.500000 0.284123
vt 0.500000 0.357976
vt 0.409105 0.365090
vt 0.409105 0.357976
vt 0.416218 0.357976
vt 0.401991 0.357976
vt 0.409105 0.350862
vt 0.409105 0.291237
vt 0.409105 0.284123
vt 0.416218 0.284123
vt 0.401991 0.284123
vt 0.409105 0.277010
vt 0.416218 0.203157
vt 0.416218 0.210271
vt 0.409105 0.210271
vt 0.409105 0.203157
vt 0.409105 0.217385
vt 0.401991 0.210271
vt 0.318209 0.365090
vt 0.318209 0.357976
vt 0.325323 0.357976
vt 0.311095 0.357976
vt 0.318209 0.350862
vt 0.318209 0.291237
vt 0.318209 0.284123
vt 0.325323 0.284123
vt 0.311095 0.284123
vt 0.318209 0.277010
vt 0.325323 0.210271
vt 0.318209 0.210271
vt 0.318209 0.203157
vt 0.318209 0.217385
vt 0.311095 0.210271
vt 0.220200 0.357976
vt 0.227314 0.357976
vt 0.227314 0.365090
vt 0.227314 0.350862
vt 0.234428 0.357976
vt 0.220200 0.284123
vt 0.227314 0.284123
vt 0.227314 0.291237
vt 0.227314 0.277010
vt 0.234428 0.284123
vt 0.227314 0.203157
vt 0.227314 0.210271
vt 0.220200 0.210271
vt 0.234428 0.210271
vt 0.227314 0.217385
vn 0.0000 -1.0000 0.0000
vn 0.0000 0.0000 1.0000
vn 0.0406 -0.0330 -0.9986
vn 0.0406 0.0330 -0.9986
vn 0.0000 0.0000 -1.0000
vn 0.0000 1.0000 0.0000
vn 1.0000 -0.0000 0.0000
vn -1.0000 0.0000 0.0000
vn -0.0406 0.0330 -0.9986
vn 0.0000 0.0659 -0.9978
vn -0.0406 -0.0330 -0.9986
vn 0.0000 -0.0659 -0.9978
vn -0.3623 0.3623 0.8588
vn -0.3623 -0.3623 0.8588
vn 0.3623 -0.3623 0.8588
vn 0.3623 0.3623 0.8588
vn 0.0000 -0.6449 0.7643
vn 0.0000 0.6449 0.7643
vn 0.6449 0.0000 0.7643
vn -0.6449 0.0000 0.7643
g Cube_Cube_Material
usemtl Material
s off
f 6/1/1 17/2/1 68/3/1 67/4/1 8/5/1
f 42/6/2 3/7/2 55/8/2 132/9/2
f 150/10/2 62/11/2 7/12/2 39/13/2
f 80/14/2 108/15/2 114/16/2 88/17/2
f 46/18/2 43/19/2 135/20/2 106/21/2
f 29/22/3 20/23/3 1/24/3 9/25/3
f 15/26/4 23/27/4 11/28/4 2/29/4
f 23/27/5 26/30/5 10/31/5 11/28/5
f 26/30/5 29/22/5 9/25/5 10/31/5
f 1/32/6 20/33/6 56/34/6 55/8/6 3/7/6
f 4/35/2 51/36/2 78/37/2 74/38/2
f 9/39/7 1/40/7 3/7/7 42/6/7 44/41/7
f 99/42/2 123/43/2 34/44/2 31/45/2
f 8/5/8 30/46/8 32/47/8 14/48/8 6/49/8
f 40/50/8 39/13/8 7/12/8 5/51/8 12/52/8
f 32/47/8 31/45/8 34/44/8 36/53/8 13/54/8 14/48/8
f 126/55/2 151/56/2 38/57/2 35/58/2
f 36/53/8 35/58/8 38/57/8 40/50/8 12/52/8 13/54/8
f 50/59/2 47/60/2 105/61/2 79/62/2
f 116/63/2 143/64/2 152/65/2 125/66/2
f 11/67/7 10/68/7 48/69/7 47/60/7 50/59/7 52/70/7
f 89/71/2 117/72/2 124/73/2 98/74/2
f 107/75/2 134/76/2 144/77/2 115/78/2
f 2/79/7 11/67/7 52/70/7 51/36/7 4/35/7
f 15/26/1 2/29/1 4/35/1 74/38/1 76/80/1
f 17/2/1 16/81/1 72/82/1 71/83/1 66/84/1 68/3/1
f 13/85/5 12/86/5 27/87/5 24/88/5
f 24/88/5 27/87/5 28/89/5 25/90/5
f 25/90/5 28/89/5 29/22/5 26/30/5
f 14/91/5 13/85/5 24/88/5 21/92/5
f 21/92/5 24/88/5 25/90/5 22/93/5
f 22/93/5 25/90/5 26/30/5 23/27/5
f 6/1/9 14/91/9 21/92/9 17/2/9
f 17/2/10 21/92/10 22/93/10 16/81/10
f 16/81/10 22/93/10 23/27/10 15/26/10
f 12/86/11 5/94/11 18/95/11 27/87/11
f 27/87/12 18/95/12 19/96/12 28/89/12
f 28/89/12 19/96/12 20/23/12 29/22/12
f 71/83/2 90/97/2 97/98/2 66/84/2
f 16/81/1 15/26/1 76/80/1 75/99/1 70/100/1 72/82/1
f 75/99/2 81/101/2 87/102/2 70/100/2
f 10/68/7 9/39/7 44/41/7 43/19/7 46/18/7 48/69/7
f 20/33/6 19/103/6 60/104/6 59/105/6 54/106/6 56/34/6
f 18/107/6 5/108/6 7/12/6 62/11/6 64/109/6
f 133/110/2 54/106/2 59/105/2 141/111/2
f 19/103/6 18/107/6 64/109/6 63/112/6 58/113/6 60/104/6
f 142/114/2 58/113/2 63/112/2 153/115/2
f 30/46/8 33/116/8 32/47/8
f 33/116/8 31/45/8 32/47/8
f 34/44/8 37/117/8 36/53/8
f 37/117/8 35/58/8 36/53/8
f 38/57/8 41/118/8 40/50/8
f 41/118/8 39/13/8 40/50/8
f 42/6/7 45/119/7 44/41/7
f 45/119/7 43/19/7 44/41/7
f 46/18/7 49/120/7 48/69/7
f 49/120/7 47/60/7 48/69/7
f 50/59/7 53/121/7 52/70/7
f 53/121/7 51/36/7 52/70/7
f 54/106/6 57/122/6 56/34/6
f 57/122/6 55/8/6 56/34/6
f 58/113/6 61/123/6 60/104/6
f 61/123/6 59/105/6 60/104/6
f 62/11/6 65/124/6 64/109/6
f 65/124/6 63/112/6 64/109/6
f 66/84/1 69/125/1 68/3/1
f 69/125/1 67/4/1 68/3/1
f 70/100/1 73/126/1 72/82/1
f 73/126/1 71/83/1 72/82/1
f 74/38/1 77/127/1 76/80/1
f 77/127/1 75/99/1 76/80/1
f 78/37/13 82/128/13 83/129/13 86/130/13
f 79/62/14 84/131/14 83/129/14 82/128/14
f 80/14/15 85/132/15 83/129/15 84/131/15
f 81/101/16 86/130/16 83/129/16 85/132/16
f 87/102/13 91/133/13 92/134/13 95/135/13
f 88/17/14 93/136/14 92/134/14 91/133/14
f 89/71/15 94/137/15 92/134/15 93/136/15
f 90/97/16 95/135/16 92/134/16 94/137/16
f 96/138/16 100/139/16 101/140/16 104/141/16
f 97/98/13 102/142/13 101/140/13 100/139/13
f 98/74/14 103/143/14 101/140/14 102/142/14
f 99/42/15 104/141/15 101/140/15 103/143/15
f 105/61/13 109/144/13 110/145/13 113/146/13
f 106/21/14 111/147/14 110/145/14 109/144/14
f 107/75/15 112/148/15 110/145/15 111/147/15
f 108/15/16 113/146/16 110/145/16 112/148/16
f 114/16/13 118/149/13 119/150/13 122/151/13
f 115/78/14 120/152/14 119/150/14 118/149/14
f 116/63/15 121/153/15 119/150/15 120/152/15
f 117/72/16 122/151/16 119/150/16 121/153/16
f 123/43/16 127/154/16 128/155/16 131/156/16
f 124/73/13 129/157/13 128/155/13 127/154/13
f 125/66/14 130/158/14 128/155/14 129/157/14
f 126/55/15 131/156/15 128/155/15 130/158/15
f 132/9/14 136/159/14 137/160/14 140/161/14
f 133/110/15 138/162/15 137/160/15 136/159/15
f 134/76/16 139/163/16 137/160/16 138/162/16
f 135/20/13 140/161/13 137/160/13 139/163/13
f 141/111/14 145/164/14 146/165/14 149/166/14
f 142/114/15 147/167/15 146/165/15 145/164/15
f 143/64/16 148/168/16 146/165/16 147/167/16
f 144/77/13 149/166/13 146/165/13 148/168/13
f 150/10/15 154/169/15 155/170/15 158/171/15
f 151/56/16 156/172/16 155/170/16 154/169/16
f 152/65/13 157/173/13 155/170/13 156/172/13
f 153/115/14 158/171/14 155/170/14 157/173/14
f 99/42/17 31/45/17 33/116/17 104/141/17
f 104/141/18 33/116/18 30/46/18 96/138/18
f 126/55/17 35/58/17 37/117/17 131/156/17
f 131/156/18 37/117/18 34/44/18 123/43/18
f 150/10/17 39/13/17 41/118/17 154/169/17
f 154/169/18 41/118/18 38/57/18 151/56/18
f 50/59/17 79/62/17 82/128/17 53/121/17
f 53/121/18 82/128/18 78/37/18 51/36/18
f 80/14/17 88/17/17 91/133/17 85/132/17
f 85/132/18 91/133/18 87/102/18 81/101/18
f 89/71/17 98/74/17 102/142/17 94/137/17
f 94/137/18 102/142/18 97/98/18 90/97/18
f 46/18/17 106/21/17 109/144/17 49/120/17
f 49/120/18 109/144/18 105/61/18 47/60/18
f 107/75/17 115/78/17 118/149/17 112/148/17
f 112/148/18 118/149/18 114/16/18 108/15/18
f 116/63/17 125/66/17 129/157/17 121/153/17
f 121/153/18 129/157/18 124/73/18 117/72/18
f 42/6/17 132/9/17 140/161/17 45/119/17
f 45/119/18 140/161/18 135/20/18 43/19/18
f 133/110/17 141/111/17 149/166/17 138/162/17
f 138/162/18 149/166/18 144/77/18 134/76/18
f 142/114/17 153/115/17 157/173/17 147/167/17
f 147/167/18 157/173/18 152/65/18 143/64/18
f 134/76/19 107/75/19 111/147/19 139/163/19
f 139/163/20 111/147/20 106/21/20 135/20/20
f 143/64/19 116/63/19 120/152/19 148/168/19
f 148/168/20 120/152/20 115/78/20 144/77/20
f 151/56/19 126/55/19 130/158/19 156/172/19
f 156/172/20 130/158/20 125/66/20 152/65/20
f 108/15/19 80/14/19 84/131/19 113/146/19
f 113/146/20 84/131/20 79/62/20 105/61/20
f 117/72/19 89/71/19 93/136/19 122/151/19
f 122/151/20 93/136/20 88/17/20 114/16/20
f 123/43/19 99/42/19 103/143/19 127/154/19
f 127/154/20 103/143/20 98/74/20 124/73/20
f 81/101/19 75/99/19 77/127/19 86/130/19
f 86/130/20 77/127/20 74/38/20 78/37/20
f 90/97/19 71/83/19 73/126/19 95/135/19
f 95/135/20 73/126/20 70/100/20 87/102/20
f 96/138/19 67/4/19 69/125/19 100/139/19
f 100/139/20 69/125/20 66/84/20 97/98/20
f 54/106/19 133/110/19 136/159/19 57/122/19
f 57/122/20 136/159/20 132/9/20 55/8/20
f 58/113/19 142/114/19 145/164/19 61/123/19
f 61/123/20 145/164/20 141/111/20 59/105/20
f 62/11/19 150/10/19 158/171/19 65/124/19
f 65/124/20 158/171/20 153/115/20 63/112/20
f 67/4/2 96/138/2 30/46/2 8/5/2
