# Blender v2.93.5 OBJ File: 'abstellraum.blend'
# www.blender.org
mtllib abstellraum.mtl
o Cube
v 1.000000 2.500000 1.500000
v 1.000000 0.000000 1.500000
v 1.000000 2.500000 -1.000000
v 1.000000 0.000000 -1.000000
v -1.500000 2.500000 1.500000
v -1.500000 0.000000 1.500000
v -1.500000 2.500000 -1.000000
v -1.500000 0.000000 -1.000000
v -0.452297 -0.000166 -1.000000
v 0.347702 0.000000 -1.000000
v 0.347702 2.000083 -1.000000
v -0.452298 1.999917 -1.000000
v -1.500000 0.000000 0.700001
v -1.500000 0.000000 -0.100000
v -1.500000 2.000000 -0.100000
v -1.500000 2.000000 0.699999
vt 7.793285 1.000000
vt 7.793285 -0.000000
vt 6.288906 -0.000000
vt 6.288908 0.800133
vt 12.488881 1.000000
vt 12.488882 -0.000000
vt 10.971379 -0.000000
vt 10.971377 0.798047
vt -0.049358 0.000001
vt -0.049357 1.000000
vt 4.196659 1.000000
vt 4.196658 0.000000
vt 15.086445 1.000000
vt 15.086445 0.000000
vt 5.135087 0.800133
vt 5.135087 0.000000
vt 9.467116 0.798047
vt 9.467118 -0.000000
vt 0.687500 0.571429
vt 0.843750 0.571429
vt 0.843750 0.660714
vt 0.687500 0.660714
vt 0.285747 0.875009
vt 0.285747 0.250057
vt 0.642836 0.250057
vt 0.642836 0.413119
vt 0.642836 0.613607
vt 0.642836 0.875009
vt 0.515545 0.875009
vt 0.401149 0.875009
vn 0.0000 0.0000 1.0000
vn 1.0000 0.0000 0.0000
vn -1.0000 0.0000 0.0000
vn 0.0000 0.0000 -1.0000
vn 0.0000 -1.0000 0.0000
vn 0.0000 1.0000 -0.0000
g Cube_Cube_wallpaper
usemtl wallpaper
s off
f 7/1/1 8/2/1 9/3/1 12/4/1
f 5/5/2 6/6/2 13/7/2 16/8/2
f 2/9/3 1/10/3 3/11/3 4/12/3
f 6/6/4 5/5/4 1/13/4 2/14/4
f 4/12/1 3/11/1 11/15/1 10/16/1
f 3/11/1 7/1/1 12/4/1 11/15/1
f 7/1/2 5/5/2 16/8/2 15/17/2
f 8/2/2 7/1/2 15/17/2 14/18/2
g Cube_Cube_ceiling
usemtl ceiling
f 1/19/5 5/20/5 7/21/5 3/22/5
g Cube_Cube_floor
usemtl floor
f 6/23/6 2/24/6 4/25/6 10/26/6 9/27/6 8/28/6 14/29/6 13/30/6
