# Blender v2.93.5 OBJ File: 'door.blend'
# www.blender.org
mtllib doorframe.mtl
o doorframe_Cube.001
v 0.084889 1.998708 -0.000000
v 0.084889 0.000000 -0.000000
v 0.084889 0.000000 0.800000
v 0.084889 1.998708 0.800000
v 0.084889 1.114508 -0.000000
v 0.084889 0.882907 -0.000000
v 0.084889 1.114508 0.800000
v 0.084889 0.882907 0.800000
v 0.085489 0.000000 -0.027627
v 0.085489 0.880007 0.827627
v 0.085489 1.117408 -0.027627
v 0.085489 2.023749 -0.027627
v 0.085489 0.000000 0.827627
v 0.085489 0.880007 -0.027627
v 0.085489 2.023749 0.827627
v 0.085489 1.117408 0.827627
v 0.125717 -0.007794 -0.000000
v 0.125717 -0.007794 0.800000
v 0.126896 0.017247 -0.027627
v 0.126896 0.017247 0.827627
v 0.000000 1.114508 0.800000
v 0.000000 0.882907 0.800000
v 0.000000 0.000000 0.800000
v 0.000000 0.882907 -0.000000
v 0.000000 0.000000 -0.000000
v 0.000000 1.114508 -0.000000
v 0.000000 1.998708 0.800000
v 0.000000 1.998708 -0.000000
v -0.084889 1.998708 -0.000000
v -0.084889 0.000000 -0.000000
v -0.084889 0.000000 0.800000
v -0.084889 1.998708 0.800000
v -0.084889 1.114508 -0.000000
v -0.084889 0.882907 -0.000000
v -0.084889 1.114508 0.800000
v -0.084889 0.882907 0.800000
v 0.000000 1.117408 0.827627
v 0.000000 2.023749 0.827627
v 0.000000 0.880007 0.827627
v 0.000000 0.880007 -0.027627
v 0.000000 0.000000 -0.027627
v 0.000000 2.023749 -0.027627
v 0.000000 1.117408 -0.027627
v -0.085489 0.000000 -0.027627
v -0.085489 0.880007 0.827627
v 0.000000 0.000000 0.827627
v -0.085489 1.117408 -0.027627
v -0.085489 2.023749 -0.027627
v -0.085489 0.000000 0.827627
v -0.085489 0.880007 -0.027627
v -0.085489 2.023749 0.827627
v -0.085489 1.117408 0.827627
v 0.000000 -0.007794 0.800000
v 0.000000 -0.007794 -0.000000
v -0.125717 -0.007794 -0.000000
v -0.125717 -0.007794 0.800000
v 0.000000 0.017247 0.827627
v 0.000000 0.017247 -0.027627
v -0.126896 0.017247 -0.027627
v -0.126896 0.017247 0.827627
vt 1.000000 1.000000
vt 0.000000 1.000000
vt 0.000000 1.000000
vt 1.000000 1.000000
vt 1.000000 0.000000
vt 1.000000 0.000000
vt 1.000000 0.442100
vt 1.000000 0.442100
vt 1.000000 0.557900
vt 1.000000 0.557900
vt 0.000000 0.000000
vt 0.000000 0.000000
vt 0.000000 0.442100
vt 0.000000 0.442100
vt 0.000000 0.557900
vt 0.000000 0.557900
vt 1.000000 1.000000
vt 1.000000 1.000000
vt 0.000000 1.000000
vt 0.000000 1.000000
vt 1.000000 0.000000
vt 1.000000 0.442100
vt 1.000000 0.442100
vt 1.000000 0.000000
vt 1.000000 0.557900
vt 1.000000 0.557900
vt 0.000000 0.000000
vt 0.000000 0.442100
vt 0.000000 0.442100
vt 0.000000 0.000000
vt 0.000000 0.557900
vt 0.000000 0.557900
vt 1.000000 1.000000
vt 0.000000 1.000000
vt 0.000000 1.000000
vt 1.000000 1.000000
vt 1.000000 1.000000
vt 1.000000 1.000000
vt 0.000000 1.000000
vt 0.000000 1.000000
vt 1.000000 1.000000
vt 0.000000 1.000000
vt 1.000000 0.442100
vt 1.000000 0.000000
vt 1.000000 0.557900
vt 0.000000 0.000000
vt 0.000000 0.442100
vt 0.000000 0.557900
vt 1.000000 1.000000
vt 0.000000 1.000000
vt 1.000000 0.000000
vt 1.000000 0.442100
vt 1.000000 0.557900
vt 0.000000 0.000000
vt 0.000000 0.442100
vt 0.000000 0.557900
vt 1.000000 1.000000
vt 0.000000 1.000000
vt 1.000000 1.000000
vt 0.000000 1.000000
vn 0.0000 -1.0000 0.0000
vn 0.0000 0.0000 1.0000
vn 0.0000 0.0000 -1.0000
vn 0.0000 1.0000 0.0000
vn 0.9998 0.0000 -0.0217
vn 0.9999 -0.0110 -0.0118
vn 0.9999 -0.0112 -0.0115
vn 0.9998 0.0000 0.0217
vn 0.9999 -0.0110 0.0118
vn 0.9999 -0.0112 0.0115
vn 0.9989 -0.0470 0.0000
vn -0.9998 0.0000 -0.0217
vn -0.9999 -0.0112 -0.0115
vn -0.9999 -0.0110 -0.0118
vn -0.9998 0.0000 0.0217
vn -0.9999 -0.0112 0.0115
vn -0.9999 -0.0110 0.0118
vn -0.9989 -0.0470 0.0000
g doorframe_Cube.001_door
usemtl door
s 1
f 1/1/1 4/2/1 27/3/1 28/4/1
f 25/5/2 2/6/2 6/7/2 24/8/2
f 24/8/2 6/7/2 5/9/2 26/10/2
f 26/10/2 5/9/2 1/1/2 28/4/2
f 3/11/3 23/12/3 22/13/3 8/14/3
f 8/14/3 22/13/3 21/15/3 7/16/3
f 7/16/3 21/15/3 27/3/3 4/2/3
f 12/17/4 42/18/4 38/19/4 15/20/4
f 41/21/3 40/22/3 14/23/3 9/24/3
f 40/22/3 43/25/3 11/26/3 14/23/3
f 43/25/3 42/18/3 12/17/3 11/26/3
f 13/27/2 10/28/2 39/29/2 46/30/2
f 10/28/2 16/31/2 37/32/2 39/29/2
f 16/31/2 15/20/2 38/19/2 37/32/2
f 7/16/5 4/2/6 15/20/7 16/31/5
f 8/14/5 7/16/5 16/31/5 10/28/5
f 6/7/8 2/6/8 9/24/8 14/23/8
f 4/2/6 1/1/9 12/17/10 15/20/7
f 3/11/5 8/14/5 10/28/5 13/27/5
f 1/1/9 5/9/8 11/26/8 12/17/10
f 5/9/8 6/7/8 14/23/8 11/26/8
f 17/33/1 18/34/1 53/35/1 54/36/1
f 19/37/4 58/38/4 57/39/4 20/40/4
f 18/34/11 17/33/11 19/37/11 20/40/11
f 29/41/1 28/4/1 27/3/1 32/42/1
f 25/5/2 24/8/2 34/43/2 30/44/2
f 24/8/2 26/10/2 33/45/2 34/43/2
f 26/10/2 28/4/2 29/41/2 33/45/2
f 31/46/3 36/47/3 22/13/3 23/12/3
f 36/47/3 35/48/3 21/15/3 22/13/3
f 35/48/3 32/42/3 27/3/3 21/15/3
f 48/49/4 51/50/4 38/19/4 42/18/4
f 41/21/3 44/51/3 50/52/3 40/22/3
f 40/22/3 50/52/3 47/53/3 43/25/3
f 43/25/3 47/53/3 48/49/3 42/18/3
f 49/54/2 46/30/2 39/29/2 45/55/2
f 45/55/2 39/29/2 37/32/2 52/56/2
f 52/56/2 37/32/2 38/19/2 51/50/2
f 35/48/12 52/56/12 51/50/13 32/42/14
f 36/47/12 45/55/12 52/56/12 35/48/12
f 34/43/15 50/52/15 44/51/15 30/44/15
f 32/42/14 51/50/13 48/49/16 29/41/17
f 31/46/12 49/54/12 45/55/12 36/47/12
f 29/41/17 48/49/16 47/53/15 33/45/15
f 33/45/15 47/53/15 50/52/15 34/43/15
f 55/57/1 54/36/1 53/35/1 56/58/1
f 59/59/4 60/60/4 57/39/4 58/38/4
f 56/58/18 60/60/18 59/59/18 55/57/18
