# Blender v2.93.5 OBJ File: 'fireplace.blend'
# www.blender.org
mtllib fireplace.mtl
o fireplace_Cube
v 0.700000 1.432129 -0.500000
v 0.856854 0.000000 -0.500000
v 0.700000 1.432129 0.500000
v 0.738990 0.117863 0.567133
v -0.700000 1.432129 -0.500000
v -0.856854 0.000000 -0.500000
v -0.700000 1.432129 0.500000
v -0.738990 0.117863 0.567133
v 0.449986 0.000000 -0.500000
v -0.449986 0.000000 -0.500000
v 0.377598 1.788101 0.097861
v -0.377598 1.788101 0.097861
v -0.567850 0.117863 0.567133
v 0.567850 0.117863 0.567133
v -0.377598 1.788101 -0.427612
v 0.377598 1.788101 -0.427612
v 0.856854 0.327643 -0.500000
v -0.822956 0.327643 0.540134
v 0.822956 0.327643 0.540134
v -0.856854 0.327643 -0.500000
v -0.449986 0.327643 -0.500000
v 0.449986 0.327643 -0.500000
v 0.483884 0.327643 0.540134
v -0.483884 0.327643 0.540134
v -0.738990 1.159624 0.567133
v 0.856854 1.277487 -0.500000
v 0.738990 1.159624 0.567133
v -0.856854 1.277487 -0.500000
v -0.449986 1.277487 -0.500000
v 0.449986 1.277487 -0.500000
v 0.567850 1.159624 0.567133
v -0.567850 1.159624 0.567133
v -0.449986 1.432129 0.500000
v 0.449986 1.432129 0.500000
v 0.449986 1.670586 0.170250
v -0.449986 1.670586 0.170250
v -0.449986 1.670586 -0.500000
v 0.449986 1.670586 -0.500000
v 0.377598 2.500000 0.097861
v -0.377598 2.500000 0.097861
v -0.377598 2.500000 -0.427612
v 0.377598 2.500000 -0.427612
v 0.449986 1.277487 -0.400000
v 0.413351 0.327643 -0.363365
v -0.449986 1.277487 -0.400000
v -0.413351 0.327643 -0.363365
v 0.856854 0.163822 -0.500000
v 0.822956 0.163822 0.540134
v -0.856854 0.163822 -0.500000
v -0.449986 0.107613 -0.500000
v 0.449986 0.107613 -0.500000
v 0.483884 0.107613 0.540134
v -0.483884 0.107613 0.540134
v -0.822956 0.163822 0.540134
v -0.413351 0.327643 0.013365
v -0.449986 1.277487 0.050000
v 0.413351 0.327643 0.013365
v 0.449986 1.277487 0.050000
v 0.449986 0.327643 -0.400000
v -0.449986 0.327643 -0.400000
v -0.449986 0.327643 0.050000
v 0.449986 0.327643 0.050000
v 0.413351 0.254037 -0.363365
v -0.413351 0.254037 -0.363365
v -0.413351 0.254037 0.013365
v 0.413351 0.254037 0.013365
v -0.384138 0.312012 0.408465
v -0.348982 0.312012 0.408465
v -0.385696 0.312012 0.440826
v -0.347424 0.312012 0.440826
v -0.347424 0.709002 0.440826
v -0.385696 0.709002 0.440826
v -0.348982 0.709002 0.408465
v -0.384138 0.709002 0.408465
v -0.237056 0.312012 0.408465
v -0.201900 0.312012 0.408465
v -0.238614 0.312012 0.440826
v -0.200342 0.312012 0.440826
v -0.200342 0.709002 0.440826
v -0.238614 0.709002 0.440826
v -0.201900 0.709002 0.408465
v -0.237056 0.709002 0.408465
v -0.089974 0.312012 0.408465
v -0.054818 0.312012 0.408465
v -0.091532 0.312012 0.440826
v -0.053260 0.312012 0.440826
v -0.053260 0.709002 0.440826
v -0.091532 0.709002 0.440826
v -0.054818 0.709002 0.408465
v -0.089974 0.709002 0.408465
v 0.057108 0.312012 0.408465
v 0.092264 0.312012 0.408465
v 0.055551 0.312012 0.440826
v 0.093822 0.312012 0.440826
v 0.093822 0.709002 0.440826
v 0.055551 0.709002 0.440826
v 0.092264 0.709002 0.408465
v 0.057108 0.709002 0.408465
v 0.204191 0.312012 0.408465
v 0.239346 0.312012 0.408465
v 0.202633 0.312012 0.440826
v 0.240904 0.312012 0.440826
v 0.240904 0.709002 0.440826
v 0.202633 0.709002 0.440826
v 0.239346 0.709002 0.408465
v 0.204191 0.709002 0.408465
v 0.351273 0.312012 0.408465
v 0.386429 0.312012 0.408465
v 0.349715 0.312012 0.440826
v 0.387986 0.312012 0.440826
v 0.387986 0.709002 0.440826
v 0.349715 0.709002 0.440826
v 0.386429 0.709002 0.408465
v 0.351273 0.709002 0.408465
v -0.392603 0.746242 0.408465
v -0.392603 0.711087 0.408465
v -0.392603 0.747800 0.440826
v -0.392603 0.709529 0.440826
v 0.388535 0.709529 0.440826
v 0.388535 0.747800 0.440826
v 0.388535 0.711087 0.408465
v 0.388535 0.746242 0.408465
v 0.856854 0.163822 0.500000
v 0.856854 0.000000 0.500000
v 0.449986 0.000000 0.500000
v -0.856854 0.000000 0.500000
v -0.449986 0.000000 0.500000
v 0.449986 0.107613 0.500000
v -0.449986 0.107613 0.500000
v -0.856854 0.163822 0.500000
v -0.856854 0.327643 0.500000
v 0.856854 1.277487 0.500000
v 0.856854 0.327643 0.500000
v 0.449986 1.277487 0.500000
v 0.449986 0.327643 0.500000
v -0.449986 1.277487 0.500000
v -0.449986 0.327643 0.500000
v -0.856854 1.277487 0.500000
v 0.738990 0.163822 0.567133
v 0.822956 0.033898 0.540134
v 0.483884 0.033898 0.540134
v -0.822956 0.033898 0.540134
v -0.483884 0.033898 0.540134
v 0.567850 0.107613 0.567133
v -0.567850 0.107613 0.567133
v -0.738990 0.163822 0.567133
v -0.738990 0.327643 0.567133
v 0.822956 1.243589 0.540134
v 0.738990 0.327643 0.567133
v 0.483884 1.243589 0.540134
v 0.567850 0.327643 0.567133
v -0.483884 1.243589 0.540134
v -0.567850 0.327643 0.567133
v -0.822956 1.243589 0.540134
vt 0.999725 0.156287
vt 0.999724 0.219707
vt 0.816164 0.219707
vt 0.876693 0.156287
vt 0.552435 0.089108
vt 0.476058 0.090752
vt 0.551944 0.042320
vt 0.816164 0.260139
vt 0.999724 0.260139
vt 0.999724 0.774026
vt 0.999725 0.848711
vt 0.816164 0.848711
vt 0.816164 0.774027
vt 0.315396 0.602311
vt 0.315396 0.561879
vt 0.498956 0.561879
vt 0.498956 0.602311
vt 0.240160 0.324901
vt 0.240160 0.252743
vt 0.286052 0.296515
vt 0.314845 0.324901
vt 0.000276 0.324901
vt 0.029068 0.296515
vt 0.074960 0.252743
vt 0.074960 0.324901
vt 0.999724 0.494635
vt 0.999724 0.569320
vt 0.816164 0.569320
vt 0.816164 0.494636
vt 0.816164 0.754273
vt 0.999724 0.754273
vt 0.558319 0.305353
vt 0.481397 0.261330
vt 0.557385 0.259580
vt 0.315396 0.498459
vt 0.438427 0.498459
vt 0.425139 0.473124
vt 0.328683 0.473124
vt 0.328683 0.342447
vt 0.425139 0.342447
vt 0.796582 0.258504
vt 0.752930 0.255023
vt 0.751587 0.089130
vt 0.795274 0.084139
vt 0.779044 0.313045
vt 0.749718 0.314035
vt 0.751225 0.281037
vt 0.788084 0.284180
vt 0.074960 0.539644
vt 0.074960 0.499255
vt 0.240160 0.499255
vt 0.240160 0.539644
vt 0.000276 0.529326
vt 0.000276 0.499255
vt 0.314845 0.499255
vt 0.314845 0.529326
vt 0.315396 0.806736
vt 0.315396 0.776665
vt 0.498956 0.776665
vt 0.498956 0.806736
vt 0.816164 0.464564
vt 0.816164 0.434493
vt 0.999724 0.434493
vt 0.999724 0.464564
vt 0.788366 0.060255
vt 0.749495 0.062704
vt 0.747658 0.029096
vt 0.777310 0.030859
vt 0.582110 0.856354
vt 0.582110 0.682001
vt 0.664712 0.682001
vt 0.664712 0.856354
vt 0.609541 0.310366
vt 0.609851 0.281963
vt 0.605226 0.064415
vt 0.604778 0.035571
vt 0.585534 0.258741
vt 0.581307 0.088725
vt 0.579649 0.013327
vt 0.585884 0.332807
vt 0.454807 0.248429
vt 0.450327 0.105291
vt 0.088248 0.227408
vt 0.226872 0.227408
vt 0.889981 0.130952
vt 0.986437 0.130952
vt 0.226872 0.096732
vt 0.088248 0.096732
vt 0.088248 0.000276
vt 0.226872 0.000276
vt 0.319876 0.252652
vt 0.315396 0.109514
vt 0.889981 0.000276
vt 0.986437 0.000276
vt 0.165475 0.580184
vt 0.165475 0.754538
vt 0.000276 0.754538
vt 0.000276 0.580184
vt 0.186262 0.566673
vt 0.255415 0.566673
vt 0.255415 0.580184
vt 0.186262 0.580184
vt 0.582110 0.516801
vt 0.582110 0.342447
vt 0.664712 0.342447
vt 0.664712 0.516801
vt 0.082878 0.920289
vt 0.082878 0.755089
vt 0.165480 0.755089
vt 0.165480 0.920289
vt 0.790140 0.059301
vt 0.787930 0.035181
vt 0.315396 0.836807
vt 0.498956 0.836807
vt 0.240160 0.559397
vt 0.314845 0.559397
vt 0.000276 0.559397
vt 0.074960 0.559397
vt 0.816164 0.589074
vt 0.999724 0.589074
vt 0.789260 0.309436
vt 0.789946 0.285160
vt 0.000276 0.920289
vt 0.000276 0.755089
vt 0.499507 0.516801
vt 0.499507 0.342447
vt 0.499507 0.682001
vt 0.499507 0.856354
vt 0.007001 0.573459
vt 0.158750 0.573460
vt 0.186262 0.745445
vt 0.255415 0.745445
vt 0.262140 0.752170
vt 0.179537 0.752170
vt 0.179537 0.559948
vt 0.262140 0.559948
vt 0.172751 0.580184
vt 0.172751 0.731934
vt 0.166026 0.738658
vt 0.166026 0.573459
vt 0.186262 0.731934
vt 0.255415 0.731934
vt 0.007001 0.559948
vt 0.158750 0.559948
vt 0.750015 0.374604
vt 0.744075 0.374890
vt 0.744075 0.367865
vt 0.750015 0.368151
vt 0.665263 0.374604
vt 0.665263 0.368151
vt 0.671203 0.367865
vt 0.671203 0.374890
vt 0.302623 0.632820
vt 0.296170 0.632820
vt 0.296170 0.559948
vt 0.302623 0.559948
vt 0.744075 0.361918
vt 0.671203 0.361918
vt 0.744075 0.380837
vt 0.671203 0.380838
vt 0.750015 0.413546
vt 0.744075 0.413832
vt 0.744075 0.406806
vt 0.750015 0.407092
vt 0.665263 0.413546
vt 0.665263 0.407092
vt 0.671203 0.406807
vt 0.671203 0.413832
vt 0.295619 0.632820
vt 0.289166 0.632820
vt 0.289166 0.559948
vt 0.295619 0.559948
vt 0.744075 0.400859
vt 0.671203 0.400859
vt 0.744075 0.419779
vt 0.671203 0.419779
vt 0.275377 0.559948
vt 0.275663 0.565888
vt 0.268638 0.565888
vt 0.268924 0.559948
vt 0.275377 0.644700
vt 0.268924 0.644700
vt 0.268638 0.638760
vt 0.275663 0.638760
vt 0.671716 0.656609
vt 0.665263 0.656609
vt 0.665263 0.583737
vt 0.671716 0.583737
vt 0.262691 0.565888
vt 0.262691 0.638760
vt 0.281610 0.565888
vt 0.281610 0.638760
vt 0.750015 0.433016
vt 0.744075 0.433302
vt 0.744075 0.426277
vt 0.750015 0.426563
vt 0.665263 0.433016
vt 0.665263 0.426563
vt 0.671203 0.426277
vt 0.671203 0.433302
vt 0.309628 0.632820
vt 0.303174 0.632820
vt 0.303174 0.559948
vt 0.309628 0.559948
vt 0.744075 0.420330
vt 0.671203 0.420330
vt 0.744075 0.439249
vt 0.671203 0.439249
vt 0.750015 0.355134
vt 0.744075 0.355420
vt 0.744075 0.348395
vt 0.750015 0.348681
vt 0.665263 0.355134
vt 0.665263 0.348681
vt 0.671203 0.348395
vt 0.671203 0.355420
vt 0.678720 0.512672
vt 0.672267 0.512672
vt 0.672267 0.439801
vt 0.678720 0.439801
vt 0.744075 0.342448
vt 0.671203 0.342447
vt 0.744075 0.361367
vt 0.671203 0.361367
vt 0.750015 0.394075
vt 0.744075 0.394361
vt 0.744075 0.387336
vt 0.750015 0.387622
vt 0.665263 0.394075
vt 0.665263 0.387622
vt 0.671203 0.387336
vt 0.671203 0.394361
vt 0.288615 0.632820
vt 0.282161 0.632820
vt 0.282161 0.559948
vt 0.288615 0.559948
vt 0.744075 0.381389
vt 0.671203 0.381389
vt 0.744075 0.400308
vt 0.671203 0.400308
vt 0.315396 0.843592
vt 0.321336 0.843306
vt 0.321336 0.850331
vt 0.315396 0.850045
vt 0.470662 0.843592
vt 0.470662 0.850045
vt 0.464721 0.850331
vt 0.464721 0.843306
vt 0.665263 0.439801
vt 0.671716 0.439801
vt 0.671716 0.583186
vt 0.665263 0.583186
vt 0.321336 0.856278
vt 0.464721 0.856278
vt 0.321336 0.837359
vt 0.464721 0.837358
vt 0.781510 0.330035
vt 0.805032 0.321961
vt 0.812617 0.328667
vt 0.783332 0.339377
vt 0.806818 0.273415
vt 0.815613 0.267018
vt 0.804766 0.070837
vt 0.806663 0.022198
vt 0.815613 0.015371
vt 0.812228 0.077118
vt 0.794259 0.267892
vt 0.793233 0.075443
vt 0.781251 0.012489
vt 0.747503 0.010656
vt 0.747631 0.000276
vt 0.783331 0.002180
vt 0.594468 0.324518
vt 0.749659 0.331862
vt 0.749960 0.341896
vt 0.752460 0.264922
vt 0.595153 0.267654
vt 0.590241 0.079585
vt 0.750924 0.079227
vt 0.589581 0.021762
vt 0.779086 0.313325
vt 0.789668 0.309547
vt 0.804205 0.321686
vt 0.781399 0.329488
vt 0.789989 0.285137
vt 0.806488 0.273557
vt 0.790183 0.059322
vt 0.788321 0.035055
vt 0.805776 0.022468
vt 0.804484 0.070693
vt 0.777349 0.030645
vt 0.747656 0.028493
vt 0.747517 0.011349
vt 0.781119 0.013081
vt 0.749718 0.314631
vt 0.749662 0.331211
vn -0.6902 0.7236 0.0000
vn 0.0000 0.8103 0.5860
vn -0.7021 0.7121 0.0000
vn 0.0000 -1.0000 0.0000
vn 0.7021 0.7121 0.0000
vn 0.0000 0.0000 -1.0000
vn -1.0000 0.0000 0.0000
vn 0.6902 0.7236 0.0000
vn 1.0000 0.0000 0.0000
vn 0.0000 0.0000 1.0000
vn 0.0000 0.5245 0.8514
vn 0.0000 0.5245 -0.8514
vn 0.8514 0.5245 0.0000
vn -0.8514 0.5245 0.0000
vn 0.0000 1.0000 0.0000
vn -0.9988 0.0000 -0.0481
vn 0.9988 0.0000 -0.0481
vn 0.0000 0.9988 -0.0481
vn -0.0000 -0.9988 -0.0481
vn 0.7640 0.0000 0.6453
vn 0.0000 -0.7640 0.6453
vn -0.7640 0.0000 0.6453
vn 0.0000 0.7640 0.6453
vn 0.3061 0.0000 0.9520
vn 0.0000 -0.3061 0.9520
vn -0.3061 0.0000 0.9520
vn 0.0000 0.3061 0.9520
g fireplace_Cube_fireplace
usemtl fireplace
s off
f 37/1/1 5/2/1 7/3/1 36/4/1
f 33/5/2 36/6/2 7/7/2
f 138/8/3 7/3/3 5/2/3 28/9/3
f 9/10/4 2/11/4 124/12/4 125/13/4
f 26/14/5 1/15/5 3/16/5 132/17/5
f 30/18/6 38/19/6 1/20/6 26/21/6
f 28/22/6 5/23/6 37/24/6 29/25/6
f 29/25/6 37/24/6 38/19/6 30/18/6
f 6/26/4 10/27/4 127/28/4 126/29/4
f 128/30/7 51/31/7 9/10/7 125/13/7
f 3/32/2 35/33/2 34/34/2
f 34/34/2 35/33/2 36/6/2 33/5/2
f 1/15/8 38/35/8 35/36/8 3/16/8
f 11/37/9 16/38/9 42/39/9 39/40/9
f 128/41/10 135/42/10 137/43/10 129/44/10
f 139/45/10 149/46/10 151/47/10 144/48/10
f 50/49/6 21/50/6 22/51/6 51/52/6
f 49/53/6 20/54/6 21/50/6 50/49/6
f 51/52/6 22/51/6 17/55/6 47/56/6
f 47/57/9 17/58/9 133/59/9 123/60/9
f 130/61/7 131/62/7 20/63/7 49/64/7
f 145/65/10 153/66/10 147/67/10 146/68/10
f 56/69/9 61/70/9 60/71/9 45/72/9
f 149/46/10 27/73/10 31/74/10 151/47/10
f 21/50/6 29/25/6 30/18/6 22/51/6
f 20/54/6 28/22/6 29/25/6 21/50/6
f 22/51/6 30/18/6 26/21/6 17/55/6
f 17/58/9 26/14/9 132/17/9 133/59/9
f 131/62/7 138/8/7 28/9/7 20/63/7
f 153/66/10 32/75/10 25/76/10 147/67/10
f 134/77/10 34/34/10 33/5/10 136/78/10
f 136/78/10 33/5/10 7/7/10 138/79/10
f 132/80/10 3/32/10 34/34/10 134/77/10
f 11/81/11 12/82/11 36/6/11 35/33/11
f 15/83/12 16/84/12 38/19/12 37/24/12
f 16/38/13 11/37/13 35/36/13 38/35/13
f 12/85/14 15/86/14 37/1/14 36/4/14
f 42/87/15 41/88/15 40/89/15 39/90/15
f 12/82/10 11/81/10 39/91/10 40/92/10
f 15/86/7 12/85/7 40/93/7 41/94/7
f 16/84/6 15/83/6 41/88/6 42/87/6
f 59/95/10 43/96/10 45/97/10 60/98/10
f 57/99/7 44/100/7 63/101/7 66/102/7
f 62/103/7 58/104/7 43/105/7 59/106/7
f 58/107/4 56/108/4 45/109/4 43/110/4
f 13/111/10 145/65/10 146/68/10 8/112/10
f 126/29/7 130/61/7 49/64/7 6/26/7
f 2/113/9 47/57/9 123/60/9 124/114/9
f 9/115/6 51/52/6 47/56/6 2/116/6
f 6/117/6 49/53/6 50/49/6 10/118/6
f 129/119/9 127/28/9 10/27/9 50/120/9
f 4/121/10 139/45/10 144/48/10 14/122/10
f 128/30/4 129/119/4 50/120/4 51/31/4
f 134/123/4 136/124/4 56/108/4 58/107/4
f 135/125/7 134/126/7 58/104/7 62/103/7
f 137/127/15 135/125/15 62/103/15 61/70/15
f 136/128/9 137/127/9 61/70/9 56/69/9
f 46/129/15 44/130/15 59/95/15 60/98/15
f 55/131/15 46/132/15 60/133/15 61/134/15
f 44/100/15 57/99/15 62/135/15 59/136/15
f 57/137/15 55/138/15 61/139/15 62/140/15
f 65/141/15 66/102/15 63/101/15 64/142/15
f 44/130/10 46/129/10 64/143/10 63/144/10
f 55/138/6 57/137/6 66/102/6 65/141/6
f 46/132/9 55/131/9 65/141/9 64/142/9
f 68/145/4 70/146/4 69/147/4 67/148/4
f 73/149/15 74/150/15 72/151/15 71/152/15
f 68/153/6 67/154/6 74/155/6 73/156/6
f 67/157/16 69/147/16 72/151/16 74/158/16
f 69/147/10 70/146/10 71/152/10 72/151/10
f 70/146/17 68/159/17 73/160/17 71/152/17
f 76/161/4 78/162/4 77/163/4 75/164/4
f 81/165/15 82/166/15 80/167/15 79/168/15
f 76/169/6 75/170/6 82/171/6 81/172/6
f 75/173/16 77/163/16 80/167/16 82/174/16
f 77/163/10 78/162/10 79/168/10 80/167/10
f 78/162/17 76/175/17 81/176/17 79/168/17
f 84/177/4 86/178/4 85/179/4 83/180/4
f 89/181/15 90/182/15 88/183/15 87/184/15
f 84/185/6 83/186/6 90/187/6 89/188/6
f 83/189/16 85/179/16 88/183/16 90/190/16
f 85/179/10 86/178/10 87/184/10 88/183/10
f 86/178/17 84/191/17 89/192/17 87/184/17
f 92/193/4 94/194/4 93/195/4 91/196/4
f 97/197/15 98/198/15 96/199/15 95/200/15
f 92/201/6 91/202/6 98/203/6 97/204/6
f 91/205/16 93/195/16 96/199/16 98/206/16
f 93/195/10 94/194/10 95/200/10 96/199/10
f 94/194/17 92/207/17 97/208/17 95/200/17
f 100/209/4 102/210/4 101/211/4 99/212/4
f 105/213/15 106/214/15 104/215/15 103/216/15
f 100/217/6 99/218/6 106/219/6 105/220/6
f 99/221/16 101/211/16 104/215/16 106/222/16
f 101/211/10 102/210/10 103/216/10 104/215/10
f 102/210/17 100/223/17 105/224/17 103/216/17
f 108/225/4 110/226/4 109/227/4 107/228/4
f 113/229/15 114/230/15 112/231/15 111/232/15
f 108/233/6 107/234/6 114/235/6 113/236/6
f 107/237/16 109/227/16 112/231/16 114/238/16
f 109/227/10 110/226/10 111/232/10 112/231/10
f 110/226/17 108/239/17 113/240/17 111/232/17
f 116/241/7 118/242/7 117/243/7 115/244/7
f 121/245/9 122/246/9 120/247/9 119/248/9
f 116/249/6 115/250/6 122/251/6 121/252/6
f 115/253/18 117/243/18 120/247/18 122/254/18
f 117/243/10 118/242/10 119/248/10 120/247/10
f 118/242/19 116/255/19 121/256/19 119/248/19
f 48/257/20 140/258/20 124/259/20 123/260/20
f 140/258/21 141/261/21 125/262/21 124/259/21
f 143/263/21 142/264/21 126/265/21 127/266/21
f 141/261/22 52/267/22 128/41/22 125/262/22
f 53/268/20 143/263/20 127/266/20 129/44/20
f 54/269/22 18/270/22 131/271/22 130/272/22
f 148/273/20 19/274/20 133/275/20 132/80/20
f 23/276/22 150/277/22 134/77/22 135/42/22
f 152/278/20 24/279/20 137/43/20 136/78/20
f 18/270/22 154/280/22 138/79/22 131/271/22
f 150/277/23 148/273/23 132/80/23 134/77/23
f 154/280/23 152/278/23 136/78/23 138/79/23
f 19/274/20 48/257/20 123/260/20 133/275/20
f 52/267/22 23/276/22 135/42/22 128/41/22
f 24/279/20 53/268/20 129/44/20 137/43/20
f 142/264/22 54/269/22 130/272/22 126/265/22
f 139/281/24 4/282/24 140/283/24 48/284/24
f 4/282/25 14/285/25 141/286/25 140/283/25
f 13/287/25 8/288/25 142/289/25 143/290/25
f 14/285/26 144/48/26 52/267/26 141/286/26
f 145/65/24 13/287/24 143/290/24 53/268/24
f 146/291/26 147/292/26 18/293/26 54/294/26
f 27/73/24 149/295/24 19/296/24 148/273/24
f 151/47/26 31/74/26 150/277/26 23/276/26
f 32/75/24 153/66/24 24/279/24 152/278/24
f 147/292/26 25/76/26 154/280/26 18/293/26
f 31/74/27 27/73/27 148/273/27 150/277/27
f 25/76/27 32/75/27 152/278/27 154/280/27
f 149/295/24 139/281/24 48/284/24 19/296/24
f 144/48/26 151/47/26 23/276/26 52/267/26
f 153/66/24 145/65/24 53/268/24 24/279/24
f 8/288/26 146/291/26 54/294/26 142/289/26
