# Blender v2.93.5 OBJ File: 'flur_oben_2.blend'
# www.blender.org
mtllib flur_oben_2.mtl
o Cube
v 3.000000 2.500000 2.000000
v 3.000000 0.000000 2.000000
v 3.000000 2.500000 -1.000000
v 3.000000 0.000000 -1.000000
v -0.250000 2.500000 2.000000
v -0.250000 0.000000 2.000000
v -0.250000 2.500000 -1.000000
v -0.250000 0.000000 -1.000000
v 1.023370 0.000000 -1.000000
v 1.823372 0.000000 -1.000000
v 1.823372 2.000000 -1.000000
v 1.023370 2.000000 -1.000000
vt 5.775178 1.000000
vt 5.775178 0.000000
vt 4.490047 0.000000
vt 4.490047 0.800547
vt 13.058347 1.000000
vt 13.058347 0.000000
vt -0.898561 0.000001
vt -0.898560 1.000000
vt 2.498252 1.000000
vt 2.498252 0.000000
vt 15.086445 1.000000
vt 15.086445 0.000000
vt 3.684628 0.800547
vt 3.684629 0.000000
vt 0.687500 0.553572
vt 0.890625 0.553571
vt 0.890625 0.660714
vt 0.687500 0.660714
vt 0.214329 1.062495
vt 0.214329 0.250057
vt 0.642835 0.250057
vt 0.642835 0.544191
vt 0.642835 0.743877
vt 0.642835 1.062495
vn 0.0000 0.0000 1.0000
vn 1.0000 0.0000 -0.0000
vn -1.0000 0.0000 0.0000
vn 0.0000 0.0000 -1.0000
vn 0.0000 -1.0000 0.0000
vn 0.0000 1.0000 0.0000
g Cube_Cube_wallpaper
usemtl wallpaper
s off
f 7/1/1 8/2/1 9/3/1 12/4/1
f 8/2/2 7/1/2 5/5/2 6/6/2
f 2/7/3 1/8/3 3/9/3 4/10/3
f 6/6/4 5/5/4 1/11/4 2/12/4
f 3/9/1 7/1/1 12/4/1 11/13/1
f 4/10/1 3/9/1 11/13/1 10/14/1
g Cube_Cube_ceiling
usemtl ceiling
f 1/15/5 5/16/5 7/17/5 3/18/5
g Cube_Cube_floor
usemtl floor
f 6/19/6 2/20/6 4/21/6 10/22/6 9/23/6 8/24/6
