# Blender v2.93.5 OBJ File: 'kitchen_sink.blend'
# www.blender.org
mtllib kitchen_sink.mtl
o Cube
v 0.300000 0.600000 -0.600000
v 0.300000 0.000000 -0.600000
v 0.300000 0.000000 0.600000
v -0.300000 0.600000 -0.600000
v -0.300000 0.600000 0.600000
v -0.300000 0.000000 0.600000
v 0.300000 0.600000 0.600000
v -0.318198 0.877896 0.530330
v -0.530330 1.397511 0.318198
v 0.318198 1.397512 -0.530330
v 0.530330 0.877896 -0.318198
vt 0.285789 0.000000
vt 0.290246 0.417276
vt 0.004457 0.611517
vt 0.013372 0.183503
vt 0.979199 0.386693
vt 0.983657 0.793231
vt 0.700472 0.948863
vt 0.842042 0.999908
vt 0.000092 0.999908
vt 0.000092 0.000092
vt 0.842042 0.000092
vn 0.0000 0.0000 1.0000
vn 1.0000 0.0000 0.0000
vn 0.0000 1.0000 0.0000
vn 0.6124 0.5000 0.6124
g Cube_Cube_Material
usemtl Material
s off
f 3/1/1 7/2/1 5/3/1 6/4/1
f 2/5/2 1/6/2 7/2/2 3/1/2
f 4/7/3 5/3/3 7/2/3 1/6/3
g Cube_Cube_Material.001
usemtl Material.001
f 10/8/4 9/9/4 8/10/4 11/11/4
