# Blender v2.93.5 OBJ File: 'tutorial_room.blend'
# www.blender.org
mtllib tutorial_room.mtl
o Cube
v 2.750000 2.500000 -2.250000
v 2.750000 0.000000 -2.250000
v 2.750000 2.500000 2.250000
v 2.750000 0.000000 2.250000
v -2.750000 2.500000 -2.250000
v -2.750000 0.000000 -2.250000
v -2.750000 2.500000 2.250000
v -2.750000 0.000000 2.250000
v -2.750000 0.000000 -0.947013
v 2.750000 2.500000 -0.947013
v -2.750000 2.500000 -0.947013
v 2.750000 0.000000 -0.947013
v 0.994771 0.000000 -2.250000
v 0.994771 2.500000 2.250000
v 0.994771 0.000000 2.250000
v 0.994771 2.500000 -2.250000
v 0.994771 0.000000 -0.947013
v 0.994771 2.500000 -0.947013
v -1.519013 0.000000 -2.250000
v -1.519013 2.500000 2.250000
v -1.519013 2.500000 -0.947013
v -1.519013 0.000000 2.250000
v -1.519013 2.500000 -2.250000
v -1.519013 0.000000 -0.947013
vt 0.290637 0.111908
vt 0.000000 0.111908
vt 0.000000 0.000000
vt 0.290637 0.000000
vt 0.227273 0.888092
vt 0.227273 1.000000
vt 0.000000 1.000000
vt 0.000000 0.888092
vt 0.681818 0.790637
vt 0.681818 0.909091
vt 0.454545 0.909091
vt 0.454545 0.790637
vt 0.699728 0.159566
vt 0.409091 0.159566
vt 0.409091 0.000000
vt 0.699728 0.000000
vt 0.909091 0.618454
vt 0.909091 0.909091
vt 0.681818 0.909091
vt 0.681818 0.618453
vt 0.454545 0.840434
vt 0.454545 1.000000
vt 0.227273 1.000000
vt 0.227273 0.840434
vt 0.909091 0.500000
vt 0.681818 0.500000
vt 0.818182 0.159566
vt 0.818182 0.000000
vt 0.681818 0.500000
vt 0.454545 0.500000
vt 0.699728 0.500000
vt 0.409091 0.500000
vt 0.409091 0.388092
vt 0.699728 0.388092
vt 0.409091 0.500000
vt 0.290637 0.500000
vt 0.290637 0.340434
vt 0.409091 0.340434
vt 0.818182 0.388092
vt 0.454545 0.611908
vt 0.227273 0.611908
vt 0.227273 0.500000
vt 0.227273 0.659566
vt 0.000000 0.659566
vt 0.000000 0.500000
vt 0.000000 0.340434
vt 0.454545 0.500000
vt 0.227273 0.500000
vt 0.818182 0.500000
vt 0.409091 0.000000
vt 0.409091 0.111908
vn 0.0000 -1.0000 0.0000
vn 0.0000 0.0000 -1.0000
vn 1.0000 0.0000 0.0000
vn 0.0000 1.0000 0.0000
vn -1.0000 0.0000 0.0000
vn 0.0000 0.0000 1.0000
g Cube_Cube_Material
usemtl Material
s off
f 21/1/1 20/2/1 7/3/1 11/4/1
f 22/5/2 8/6/2 7/7/2 20/8/2
f 9/9/3 6/10/3 5/11/3 11/12/3
f 17/13/4 15/14/4 4/15/4 12/16/4
f 12/17/5 4/18/5 3/19/5 10/20/5
f 13/21/6 2/22/6 1/23/6 16/24/6
f 2/25/5 12/17/5 10/20/5 1/26/5
f 13/27/4 17/13/4 12/16/4 2/28/4
f 8/29/3 9/9/3 11/12/3 7/30/3
f 9/31/4 8/32/4 22/33/4 24/34/4
f 1/35/1 10/36/1 18/37/1 16/38/1
f 19/39/4 24/34/4 17/13/4 13/27/4
f 19/40/6 13/21/6 16/24/6 23/41/6
f 24/34/4 22/33/4 15/14/4 17/13/4
f 4/42/2 15/43/2 14/44/2 3/45/2
f 10/36/1 3/45/1 14/46/1 18/37/1
f 6/47/6 19/40/6 23/41/6 5/48/6
f 6/49/4 9/31/4 24/34/4 19/39/4
f 15/43/2 22/5/2 20/8/2 14/44/2
f 18/37/1 14/46/1 20/2/1 21/1/1
f 5/50/1 23/51/1 21/1/1 11/4/1
o Cube.001
v 0.234627 0.875691 -0.947013
v 0.463153 0.875691 -0.947013
v 0.691679 0.421146 -0.947013
v 0.920205 0.193873 -0.947013
v 1.148731 0.193873 -0.947013
v 1.148731 0.193873 -2.250000
v -1.365054 2.466600 -0.947013
v -1.365054 2.466600 -2.250000
v 0.006101 1.330236 -0.947013
v -0.222425 1.330236 -0.947013
v -0.450950 1.557509 -0.947013
v -0.679476 2.012055 -0.947013
v -0.908002 2.239327 -0.947013
v -1.136528 2.239327 -0.947013
v 0.920205 0.421146 -2.250000
v 0.691679 0.648418 -2.250000
v 0.463153 0.875691 -2.250000
v 0.234627 1.102964 -2.250000
v 0.006101 1.330236 -2.250000
v -0.222425 1.557509 -2.250000
v -0.450950 1.784782 -2.250000
v -0.679476 2.012055 -2.250000
v -0.908002 2.239327 -2.250000
v -1.136528 2.239327 -2.250000
v 0.920205 0.193873 -2.250000
v 0.920205 0.421146 -0.947013
v 0.691679 0.421146 -2.250000
v 0.691679 0.648418 -0.947013
v 0.463153 0.648418 -2.250000
v 0.463153 0.648418 -0.947013
v 0.234627 0.875691 -2.250000
v 0.234627 1.102964 -0.947013
v 0.006101 1.102964 -2.250000
v 0.006101 1.102964 -0.947013
v -0.222425 1.330236 -2.250000
v -0.222425 1.557509 -0.947013
v -0.450950 1.557509 -2.250000
v -0.450950 1.784782 -0.947013
v -0.679476 1.784782 -2.250000
v -0.679476 1.784782 -0.947013
v -0.908002 2.012055 -2.250000
v -0.908002 2.012055 -0.947013
v -1.136528 2.466600 -2.250000
v -1.136528 2.466600 -0.947013
v 1.148731 -0.021630 -0.947013
v 1.148731 -0.021630 -2.250000
v -0.587062 1.648670 -0.947013
v -0.815588 1.648670 -0.947013
v 0.555568 0.512307 -0.947013
v 0.327042 0.512307 -0.947013
v 0.098516 0.966852 -0.947013
v -0.130010 0.966852 -0.947013
v -0.358536 1.421398 -0.947013
v -0.587062 1.421398 -0.947013
v 1.012619 0.057762 -0.947013
v 1.012619 0.057762 -2.250000
v -1.501165 2.330489 -0.947013
v -1.501165 2.330489 -2.250000
v -1.272639 2.330489 -0.947013
v -1.272639 2.330489 -2.250000
v 0.784093 0.285034 -0.947013
v 0.555568 0.285034 -0.947013
v 0.327042 0.739580 -0.947013
v 0.098516 0.739580 -0.947013
v -0.130010 1.194125 -0.947013
v -0.358536 1.194125 -0.947013
v 0.784093 0.057762 -0.947013
v -0.815588 1.875943 -0.947013
v -1.044114 1.875943 -0.947013
v -1.044114 2.103216 -0.947013
v -1.272639 2.103216 -0.947013
v 0.784093 0.057762 -2.250000
v 0.784093 0.285034 -2.250000
v 0.555568 0.285034 -2.250000
v 0.555568 0.512307 -2.250000
v 0.327042 0.512307 -2.250000
v 0.327042 0.739580 -2.250000
v 0.098516 0.739580 -2.250000
v 0.098516 0.966852 -2.250000
v -0.130010 0.966852 -2.250000
v -0.130010 1.194125 -2.250000
v -0.358536 1.194125 -2.250000
v -0.358536 1.421398 -2.250000
v -0.587062 1.421398 -2.250000
v -0.587062 1.648670 -2.250000
v -0.815588 1.648670 -2.250000
v -0.815588 1.875943 -2.250000
v -1.044114 1.875943 -2.250000
v -1.044114 2.103216 -2.250000
v -1.272639 2.103216 -2.250000
v 1.012619 -0.157742 -0.947013
v 1.012619 -0.157742 -2.250000
vt 0.674782 0.857377
vt 0.674782 1.349090
vt 0.588542 1.349090
vt 0.588542 0.857377
vt 0.071105 0.857377
vt 0.071105 1.349090
vt -0.015135 1.349090
vt -0.015135 0.857377
vt 0.847261 0.857377
vt 0.847261 1.349090
vt 0.761021 1.349090
vt 0.761021 0.857377
vt 0.588542 0.857377
vt 0.588542 1.349090
vt 0.502302 1.349090
vt 0.502302 0.857377
vt 0.761021 0.857377
vt 0.761021 1.349090
vt 0.674782 1.349090
vt 0.674782 0.857377
vt 0.933500 0.857377
vt 0.933500 1.349090
vt 0.847261 1.349090
vt 0.847261 0.857377
vt 0.502302 0.857377
vt 0.502302 1.349090
vt 0.416063 1.349090
vt 0.416063 0.857377
vt 0.416063 0.857377
vt 0.416063 1.349090
vt 0.329823 1.349090
vt 0.329823 0.857377
vt 0.329823 0.857377
vt 0.329823 1.349090
vt 0.243584 1.349090
vt 0.243584 0.857377
vt 0.243584 0.857377
vt 0.243584 1.349090
vt 0.157344 1.349090
vt 0.157344 0.857377
vt 0.157344 0.857377
vt 0.157344 1.349090
vt 0.071105 1.349090
vt 0.071105 0.857377
vt 0.857377 0.658929
vt 0.857377 0.573162
vt 1.349090 0.573162
vt 1.349090 0.658929
vt 0.857377 0.658929
vt 1.349090 0.658929
vt 1.349090 0.744696
vt 0.857377 0.744696
vt 0.857377 0.830462
vt 0.857377 0.744696
vt 1.349090 0.744696
vt 1.349090 0.830462
vt 0.857377 0.830462
vt 1.349090 0.830462
vt 1.349090 0.916229
vt 0.857377 0.916229
vt 0.857377 0.916229
vt 1.349090 0.916229
vt 1.349090 1.001996
vt 0.857377 1.001996
vt 0.857377 1.001996
vt 1.349090 1.001996
vt 1.349090 1.087762
vt 0.857377 1.087762
vt 0.857377 1.087762
vt 1.349090 1.087762
vt 1.349090 1.173529
vt 0.857377 1.173529
vt 0.857377 1.173529
vt 1.349090 1.173529
vt 1.349090 1.259296
vt 0.857377 1.259296
vt 0.857377 1.259296
vt 1.349090 1.259296
vt 1.349090 1.345062
vt 0.857377 1.345062
vt 0.857377 1.430829
vt 0.857377 1.345062
vt 1.349090 1.345062
vt 1.349090 1.430829
vt 1.349090 0.573162
vt 0.857377 0.573162
vt 0.857377 0.491837
vt 1.349090 0.491837
vt 0.623417 0.857377
vt 0.537177 0.857377
vt 0.537177 1.349090
vt 0.623417 1.349090
vt 0.019740 0.857377
vt -0.066500 0.857377
vt -0.066500 1.349090
vt 0.019740 1.349090
vt 0.795896 0.857377
vt 0.709656 0.857377
vt 0.709656 1.349090
vt 0.795896 1.349090
vt 0.537177 0.857377
vt 0.450938 0.857377
vt 0.450938 1.349090
vt 0.537177 1.349090
vt 0.709656 0.857377
vt 0.623417 0.857377
vt 0.623417 1.349090
vt 0.709656 1.349090
vt 0.882136 0.857377
vt 0.795896 0.857377
vt 0.795896 1.349090
vt 0.882136 1.349090
vt 0.450938 0.857377
vt 0.364698 0.857377
vt 0.364698 1.349090
vt 0.450938 1.349090
vt 0.364698 0.857377
vt 0.278459 0.857377
vt 0.278459 1.349090
vt 0.364698 1.349090
vt 0.278459 0.857377
vt 0.192219 0.857377
vt 0.192219 1.349090
vt 0.278459 1.349090
vt 0.192219 0.857377
vt 0.105979 0.857377
vt 0.105979 1.349090
vt 0.192219 1.349090
vt 0.105979 0.857377
vt 0.019740 0.857377
vt 0.019740 1.349090
vt 0.105979 1.349090
vt 0.857377 0.607564
vt 1.349090 0.607564
vt 1.349090 0.521798
vt 0.857377 0.521798
vt 0.857377 0.607564
vt 0.857377 0.693331
vt 1.349090 0.693331
vt 1.349090 0.607564
vt 0.857377 0.779098
vt 1.349090 0.779098
vt 1.349090 0.693331
vt 0.857377 0.693331
vt 0.857377 0.779098
vt 0.857377 0.864864
vt 1.349090 0.864864
vt 1.349090 0.779098
vt 0.857377 0.864864
vt 0.857377 0.950631
vt 1.349090 0.950631
vt 1.349090 0.864864
vt 0.857377 0.950631
vt 0.857377 1.036398
vt 1.349090 1.036398
vt 1.349090 0.950631
vt 0.857377 1.036398
vt 0.857377 1.122164
vt 1.349090 1.122164
vt 1.349090 1.036398
vt 0.857377 1.122164
vt 0.857377 1.207931
vt 1.349090 1.207931
vt 1.349090 1.122164
vt 0.857377 1.207931
vt 0.857377 1.293697
vt 1.349090 1.293697
vt 1.349090 1.207931
vt 0.857377 1.379464
vt 1.349090 1.379464
vt 1.349090 1.293697
vt 0.857377 1.293697
vt 1.349090 0.521798
vt 1.349090 0.440472
vt 0.857377 0.440472
vt 0.857377 0.521798
vt 0.761021 0.658929
vt 0.709656 0.607564
vt 0.709656 0.693331
vt 0.761021 0.744696
vt -0.015135 1.430829
vt -0.066500 1.379464
vt 0.019740 1.379464
vt 0.071105 1.430829
vt 0.157344 1.259296
vt 0.105979 1.207931
vt 0.105979 1.293697
vt 0.157344 1.345062
vt 0.416063 1.087762
vt 0.364698 1.036398
vt 0.278459 1.036398
vt 0.329823 1.087762
vt 0.761021 0.744696
vt 0.709656 0.693331
vt 0.709656 0.607564
vt 0.761021 0.658929
vt 0.071105 1.430829
vt 0.019740 1.379464
vt -0.066500 1.379464
vt -0.015135 1.430829
vt 0.157344 1.345062
vt 0.105979 1.293697
vt 0.105979 1.207931
vt 0.157344 1.259296
vt 0.329823 1.173529
vt 0.278459 1.122164
vt 0.192219 1.122164
vt 0.243584 1.173529
vt 0.674782 0.744696
vt 0.623417 0.693331
vt 0.623417 0.779098
vt 0.674782 0.830462
vt 0.795896 0.607564
vt 0.847261 0.658929
vt 0.071105 1.345062
vt 0.019740 1.293697
vt 0.243584 1.259296
vt 0.192219 1.207931
vt 0.674782 0.830462
vt 0.623417 0.779098
vt 0.623417 0.693331
vt 0.674782 0.744696
vt 0.588542 0.830462
vt 0.537177 0.779098
vt 0.019740 1.293697
vt 0.071105 1.345062
vt 0.588542 0.830462
vt 0.537177 0.779098
vt 0.537177 0.864864
vt 0.588542 0.916229
vt 0.416063 1.001996
vt 0.364698 0.950631
vt 0.450938 0.950631
vt 0.502302 1.001996
vt 0.933500 0.857377
vt 0.882136 0.857377
vt 0.882136 1.349090
vt 0.933500 1.349090
vt 0.588542 0.916229
vt 0.537177 0.864864
vt 0.847261 0.573162
vt 0.795896 0.521798
vt 0.882136 0.521798
vt 0.933500 0.573162
vt 0.933500 0.491837
vt 0.882136 0.440472
vt 0.882136 0.521798
vt 0.933500 0.573162
vt 0.502302 0.916229
vt 0.450938 0.864864
vt 0.450938 0.950631
vt 0.502302 1.001996
vt 0.192219 1.207931
vt 0.243584 1.259296
vt 0.882136 0.440472
vt 0.933500 0.491837
vt 0.450938 0.864864
vt 0.502302 0.916229
vt 0.243584 1.173529
vt 0.192219 1.122164
vt 0.278459 1.122164
vt 0.329823 1.173529
vt 0.416063 1.001996
vt 0.364698 0.950631
vt 0.795896 0.521798
vt 0.847261 0.573162
vt 0.416063 1.087762
vt 0.364698 1.036398
vt 0.847261 0.658929
vt 0.795896 0.607564
vt 0.329823 1.087762
vt 0.278459 1.036398
vn 0.0000 1.0000 0.0000
vn 1.0000 0.0000 0.0000
vn 0.0000 -1.0000 0.0000
vn -1.0000 0.0000 0.0000
vn -0.0000 0.0000 -1.0000
vn 0.0000 0.0000 1.0000
vn 0.7071 -0.7071 0.0000
vn -0.7071 0.7071 0.0000
g Cube.001_Cube.001_Material.002
usemtl Material.002
s off
f 26/52/7 41/53/7 55/54/7 25/55/7
f 68/56/7 67/57/7 32/58/7 31/59/7
f 50/60/7 39/61/7 51/62/7 27/63/7
f 56/64/7 42/65/7 57/66/7 58/67/7
f 52/68/7 40/69/7 53/70/7 54/71/7
f 29/72/7 30/73/7 49/74/7 28/75/7
f 33/76/7 43/77/7 59/78/7 34/79/7
f 60/80/7 44/81/7 61/82/7 35/83/7
f 62/84/7 45/85/7 63/86/7 64/87/7
f 36/88/7 46/89/7 65/90/7 66/91/7
f 37/92/7 47/93/7 48/94/7 38/95/7
f 50/96/8 28/97/8 49/98/8 39/99/8
f 27/100/8 51/101/8 40/102/8 52/103/8
f 26/104/8 54/105/8 53/106/8 41/107/8
f 25/108/8 55/109/8 42/110/8 56/111/8
f 58/112/8 57/113/8 43/114/8 33/115/8
f 34/116/8 59/117/8 44/118/8 60/119/8
f 35/120/8 61/121/8 45/122/8 62/123/8
f 64/124/8 63/125/8 46/126/8 36/127/8
f 66/128/8 65/129/8 47/130/8 37/131/8
f 68/132/8 38/133/8 48/134/8 67/135/8
f 30/136/8 29/137/8 69/138/8 70/139/8
f 87/140/9 88/141/9 102/142/9 101/143/9
f 83/144/9 81/145/9 82/146/9 84/147/9
f 85/148/9 86/149/9 98/150/9 97/151/9
f 75/152/9 76/153/9 104/154/9 103/155/9
f 73/156/9 74/157/9 100/158/9 99/159/9
f 79/160/9 91/161/9 96/162/9 80/163/9
f 89/164/9 90/165/9 106/166/9 105/167/9
f 77/168/9 78/169/9 108/170/9 107/171/9
f 71/172/9 72/173/9 110/174/9 109/175/9
f 92/176/9 93/177/9 112/178/9 111/179/9
f 94/180/9 95/181/9 114/182/9 113/183/9
f 85/184/10 97/185/10 96/186/10 91/187/10
f 86/188/10 73/189/10 99/190/10 98/191/10
f 87/192/10 101/193/10 100/194/10 74/195/10
f 88/196/10 75/197/10 103/198/10 102/199/10
f 76/200/10 89/201/10 105/202/10 104/203/10
f 90/204/10 77/205/10 107/206/10 106/207/10
f 78/208/10 71/209/10 109/210/10 108/211/10
f 72/212/10 92/213/10 111/214/10 110/215/10
f 93/216/10 94/217/10 113/218/10 112/219/10
f 83/220/10 84/221/10 114/222/10 95/223/10
f 80/224/10 116/225/10 115/226/10 79/227/10
f 51/228/11 98/229/11 99/230/11 40/231/11
f 31/232/12 81/233/12 83/234/12 68/235/12
f 65/236/11 112/237/11 113/238/11 47/239/11
f 44/240/11 107/241/11 108/242/11 61/243/11
f 52/244/12 73/245/12 86/246/12 27/247/12
f 67/248/11 84/249/11 82/250/11 32/251/11
f 37/252/12 94/253/12 93/254/12 66/255/12
f 45/256/11 109/257/11 110/258/11 63/259/11
f 53/260/11 100/261/11 101/262/11 41/263/11
f 27/247/12 86/246/12 85/264/12 50/265/12
f 48/266/11 114/267/11 84/249/11 67/248/11
f 46/268/11 111/269/11 112/237/11 65/236/11
f 26/270/12 87/271/12 74/272/12 54/273/12
f 25/274/12 88/275/12 87/271/12 26/270/12
f 68/235/12 83/234/12 95/276/12 38/277/12
f 47/239/11 113/238/11 114/267/11 48/266/11
f 55/278/11 102/279/11 103/280/11 42/281/11
f 34/282/12 90/283/12 89/284/12 33/285/12
f 69/286/13 115/287/13 116/288/13 70/289/13
f 56/290/12 75/291/12 88/275/12 25/274/12
f 28/292/12 91/293/12 79/294/12 29/295/12
f 70/296/11 116/297/11 80/298/11 30/299/11
f 57/300/11 104/301/11 105/302/11 43/303/11
f 66/255/12 93/254/12 92/304/12 36/305/12
f 29/295/12 79/294/12 115/306/12 69/307/12
f 33/285/12 89/284/12 76/308/12 58/309/12
f 38/277/12 95/276/12 94/253/12 37/252/12
f 64/310/12 72/311/12 71/312/12 62/313/12
f 59/314/11 106/315/11 107/241/11 44/240/11
f 30/299/11 80/298/11 96/316/11 49/317/11
f 54/273/12 74/272/12 73/245/12 52/244/12
f 60/318/12 77/319/12 90/283/12 34/282/12
f 39/320/11 97/321/11 98/229/11 51/228/11
f 58/309/12 76/308/12 75/291/12 56/290/12
f 61/243/11 108/242/11 109/257/11 45/256/11
f 40/231/11 99/230/11 100/261/11 53/260/11
f 35/322/12 78/323/12 77/319/12 60/318/12
f 62/313/12 71/312/12 78/323/12 35/322/12
f 41/263/11 101/262/11 102/279/11 55/278/11
f 49/317/11 96/316/11 97/321/11 39/320/11
f 63/259/11 110/258/11 111/269/11 46/268/11
f 42/281/11 103/280/11 104/301/11 57/300/11
f 50/265/12 85/264/12 91/293/12 28/292/12
f 32/58/14 82/146/14 81/145/14 31/59/14
f 36/305/12 92/304/12 72/311/12 64/310/12
f 43/303/11 105/302/11 106/315/11 59/314/11
o Cube.002
v -2.585049 0.689491 1.107144
v -2.585049 1.525819 1.107144
v -2.759679 0.689491 1.107144
v -2.759679 1.525819 1.107144
v -2.585049 0.689491 0.587021
v -2.585049 1.525819 0.587021
v -2.759679 0.689491 0.587021
v -2.759679 1.525819 0.587021
vt 0.102379 0.407309
vt 0.102379 0.897620
vt -0.000000 0.897620
vt 0.000000 0.407310
vt -0.000000 0.000000
vt 0.490311 0.000000
vt 0.490311 0.304930
vt 0.000000 0.304930
vt 0.509689 0.407309
vt 0.509689 0.897620
vt 0.407309 0.897621
vt 0.407309 0.407309
vt 0.102380 0.304930
vt 0.407309 0.304930
vt 0.407309 1.000000
vt 0.102379 1.000000
vn 0.0000 0.0000 1.0000
vn -1.0000 0.0000 0.0000
vn 0.0000 0.0000 -1.0000
vn 1.0000 0.0000 0.0000
vn 0.0000 -1.0000 0.0000
vn 0.0000 1.0000 0.0000
g Cube.002_Cube.002_Material.003
usemtl Material.003
s off
f 117/324/15 118/325/15 120/326/15 119/327/15
f 119/328/16 120/329/16 124/330/16 123/331/16
f 123/332/17 124/333/17 122/334/17 121/335/17
f 121/335/18 122/334/18 118/325/18 117/324/18
f 119/336/19 123/337/19 121/335/19 117/324/19
f 124/338/20 120/339/20 118/325/20 122/334/20
o Plane
v -1.289312 0.661051 1.129543
v 0.710688 0.661051 1.129543
v -1.289312 0.661051 -0.113860
v 0.710688 0.661051 -0.113860
v -1.254745 0.596139 -0.084296
v -1.160522 0.596139 1.120079
v 0.676984 0.596139 1.099978
v 0.582760 0.596139 -0.104396
v -1.254745 -0.178410 -0.084296
v -1.160522 -0.178410 1.120079
v 0.676984 -0.178410 1.099978
v 0.582760 -0.178410 -0.104396
v 0.710688 0.596139 1.129543
v 0.710688 0.596139 -0.113860
v -1.289312 0.596139 -0.113860
v -1.289312 0.596139 1.129543
v -1.162720 0.596139 -0.105763
v -1.139055 0.596139 1.028053
v 0.584959 0.596139 1.121445
v 0.561293 0.596139 -0.012371
v -1.162720 -0.178410 -0.105763
v -1.139055 -0.178410 1.028053
v 0.584959 -0.178410 1.121445
v 0.561293 -0.178410 -0.012371
v -1.256112 0.596139 1.097780
v -1.256112 -0.178410 1.097780
v -1.234646 -0.178410 1.005755
v -1.234646 0.596139 1.005755
v 0.654685 -0.178410 1.004388
v 0.654685 0.596139 1.004388
v 0.562660 0.596139 1.025855
v 0.562660 -0.178410 1.025855
v -1.232447 -0.178410 0.011295
v -1.232447 0.596139 0.011295
v -1.140422 0.596139 -0.010172
v -1.140422 -0.178410 -0.010172
v 0.678351 0.596139 -0.082097
v 0.678351 -0.178410 -0.082097
v 0.656884 -0.178410 0.009928
v 0.656884 0.596139 0.009928
vt 0.000000 0.720838
vt 0.000000 0.000000
vt 0.448146 0.000000
vt 0.448146 0.720838
vt 0.943083 0.000000
vt 0.966478 0.000000
vt 0.966478 0.448146
vt 0.943083 0.448146
vt 0.943083 0.448146
vt 0.966478 0.448146
vt 0.966478 0.896292
vt 0.943083 0.896292
vt 0.896292 0.000000
vt 0.919687 0.000000
vt 0.919687 0.720838
vt 0.896292 0.720838
vt 0.919687 0.000000
vt 0.943083 0.000000
vt 0.943083 0.720838
vt 0.919687 0.720838
vt 0.896292 0.000000
vt 0.896292 0.720838
vt 0.448146 0.720838
vt 0.448146 0.000000
vt 0.375125 0.720838
vt 0.408293 0.720838
vt 0.408293 1.000000
vt 0.375125 1.000000
vt 0.999646 0.279162
vt 0.966478 0.279162
vt 0.966478 0.000000
vt 0.999646 0.000000
vt 0.241170 0.720838
vt 0.241170 1.000000
vt 0.206717 1.000000
vt 0.206717 0.720838
vt 0.481314 0.720838
vt 0.515372 0.720838
vt 0.515372 0.756216
vt 0.481314 0.756216
vt 0.068906 1.000000
vt 0.068906 0.720838
vt 0.103358 0.720838
vt 0.103358 1.000000
vt 0.448146 0.756216
vt 0.414088 0.756216
vt 0.414088 0.720838
vt 0.448146 0.720838
vt 0.966478 0.279162
vt 0.999646 0.279162
vt 0.999646 0.558325
vt 0.966478 0.558325
vt 0.000000 1.000000
vt 0.000000 0.720838
vt 0.034453 0.720838
vt 0.034453 1.000000
vt 0.651604 0.756216
vt 0.617546 0.756216
vt 0.617546 0.720838
vt 0.651604 0.720838
vt 0.172264 0.720838
vt 0.172264 1.000000
vt 0.137811 1.000000
vt 0.137811 0.720838
vt 0.549430 0.756216
vt 0.515372 0.756216
vt 0.515372 0.720838
vt 0.549430 0.720838
vt 0.966478 0.558325
vt 0.999646 0.558325
vt 0.999646 0.837487
vt 0.966478 0.837487
vt 0.034453 1.000000
vt 0.034453 0.720838
vt 0.068906 0.720838
vt 0.068906 1.000000
vt 0.583488 0.720838
vt 0.617546 0.720838
vt 0.617546 0.756216
vt 0.583488 0.756216
vt 0.206717 0.720838
vt 0.206717 1.000000
vt 0.172264 1.000000
vt 0.172264 0.720838
vt 0.549430 0.720838
vt 0.583488 0.720838
vt 0.583488 0.756216
vt 0.549430 0.756216
vt 0.308790 1.000000
vt 0.275622 1.000000
vt 0.275622 0.720838
vt 0.308790 0.720838
vt 0.275622 0.720838
vt 0.275622 1.000000
vt 0.241170 1.000000
vt 0.241170 0.720838
vt 0.685662 0.756216
vt 0.651604 0.756216
vt 0.651604 0.720838
vt 0.685662 0.720838
vt 0.103358 1.000000
vt 0.103358 0.720838
vt 0.137811 0.720838
vt 0.137811 1.000000
vt 0.685662 0.720838
vt 0.719720 0.720838
vt 0.719720 0.756216
vt 0.685662 0.756216
vt 0.341958 1.000000
vt 0.308790 1.000000
vt 0.308790 0.720838
vt 0.341958 0.720838
vt 0.375125 1.000000
vt 0.341958 1.000000
vt 0.341958 0.720838
vt 0.375125 0.720838
vt 0.448146 0.720838
vt 0.481313 0.720838
vt 0.481313 1.000000
vt 0.448146 1.000000
vn 0.0000 1.0000 0.0000
vn 1.0000 0.0000 0.0000
vn -1.0000 0.0000 0.0000
vn 0.0000 0.0000 -1.0000
vn 0.0000 0.0000 1.0000
vn 0.0000 -1.0000 0.0000
vn 0.2272 0.0000 0.9739
vn -0.9739 0.0000 -0.2272
vn -0.2272 0.0000 0.9739
vn 0.2272 0.0000 -0.9739
vn -0.2272 0.0000 -0.9739
vn 0.9739 0.0000 -0.2272
vn -0.9739 0.0000 0.2272
vn 0.9739 0.0000 0.2272
g Plane_Plane_Material.001
usemtl Material.001
s off
f 125/340/21 126/341/21 128/342/21 127/343/21
f 126/344/22 137/345/22 138/346/22 128/347/22
f 127/348/23 139/349/23 140/350/23 125/351/23
f 128/352/24 138/353/24 139/354/24 127/355/24
f 125/356/25 140/357/25 137/358/25 126/359/25
f 139/360/26 138/361/26 137/362/26 140/363/26
f 147/364/27 135/365/27 131/366/27 143/367/27
f 149/368/28 152/369/28 151/370/28 150/371/28
f 134/372/29 130/373/29 149/374/29 150/375/29
f 146/376/26 134/377/26 150/378/26 151/379/26
f 142/380/30 146/381/30 151/382/30 152/383/30
f 130/384/21 142/385/21 152/386/21 149/387/21
f 153/388/31 156/389/31 155/390/31 154/391/31
f 131/392/32 135/393/32 153/394/32 154/395/32
f 143/396/21 131/397/21 154/398/21 155/399/21
f 147/400/33 143/401/33 155/402/33 156/403/33
f 135/404/26 147/405/26 156/406/26 153/407/26
f 157/408/27 160/409/27 159/410/27 158/411/27
f 129/412/33 133/413/33 157/414/33 158/415/33
f 141/416/21 129/417/21 158/418/21 159/419/21
f 145/420/32 141/421/32 159/422/32 160/423/32
f 133/424/26 145/425/26 160/426/26 157/427/26
f 161/428/34 164/429/34 163/430/34 162/431/34
f 136/432/30 132/433/30 161/434/30 162/435/30
f 148/436/26 136/437/26 162/438/26 163/439/26
f 144/440/29 148/441/29 163/442/29 164/443/29
f 132/444/21 144/445/21 164/446/21 161/447/21
f 142/448/34 130/449/34 134/450/34 146/451/34
f 144/452/28 132/453/28 136/454/28 148/455/28
f 145/456/31 133/457/31 129/458/31 141/459/31
