# Blender v2.93.5 OBJ File: 'tutorial_tisch.blend'
# www.blender.org
mtllib tutorial_tisch.mtl
o tutorial_tisch_Plane
v -1.000000 0.600000 0.621701
v 1.000000 0.600000 0.621701
v -1.000000 0.600000 -0.621701
v 1.000000 0.600000 -0.621701
v 1.000000 0.535088 0.621701
v 1.000000 0.535088 -0.621701
v -1.000000 0.535088 -0.621701
v -1.000000 0.535088 0.621701
v 0.992020 0.535088 0.610120
v 0.992020 -0.000000 0.610120
v 0.827312 0.535088 0.610705
v 0.919522 -0.000000 0.610705
v 0.991412 -0.000000 0.531358
v 0.991412 0.535088 0.426090
v 0.826705 0.535088 0.426675
v 0.918914 -0.000000 0.531943
v 0.883703 0.367177 0.610705
v 0.992020 0.367177 0.610120
v 0.991412 0.367177 0.498298
v 0.883096 0.367177 0.498882
v -0.992020 0.535088 0.610120
v -0.992020 -0.000000 0.610120
v -0.827312 0.535088 0.610705
v -0.919522 -0.000000 0.610705
v -0.991412 -0.000000 0.531358
v -0.991412 0.535088 0.426090
v -0.826705 0.535088 0.426675
v -0.918914 -0.000000 0.531943
v -0.883703 0.367177 0.610705
v -0.992020 0.367177 0.610120
v -0.991412 0.367177 0.498298
v -0.883096 0.367177 0.498882
v 0.992020 0.535088 -0.610120
v 0.992020 -0.000000 -0.610120
v 0.827312 0.535088 -0.610705
v 0.919522 -0.000000 -0.610705
v 0.991412 -0.000000 -0.531358
v 0.991412 0.535088 -0.426090
v 0.826705 0.535088 -0.426675
v 0.918914 -0.000000 -0.531943
v 0.883703 0.367177 -0.610705
v 0.992020 0.367177 -0.610120
v 0.991412 0.367177 -0.498298
v 0.883096 0.367177 -0.498882
v -0.992020 0.535088 -0.610120
v -0.992020 -0.000000 -0.610120
v -0.827312 0.535088 -0.610705
v -0.919522 -0.000000 -0.610705
v -0.991412 -0.000000 -0.531358
v -0.991412 0.535088 -0.426090
v -0.826705 0.535088 -0.426675
v -0.918914 -0.000000 -0.531943
v -0.883703 0.367177 -0.610705
v -0.992020 0.367177 -0.610120
v -0.991412 0.367177 -0.498298
v -0.883096 0.367177 -0.498882
vt 0.000000 0.720838
vt 0.000000 0.000000
vt 0.448146 0.000000
vt 0.448146 0.720838
vt 0.943083 0.000000
vt 0.966478 0.000000
vt 0.966478 0.448146
vt 0.943083 0.448146
vt 0.943083 0.448146
vt 0.966478 0.448146
vt 0.966478 0.896292
vt 0.943083 0.896292
vt 0.896292 0.000000
vt 0.919687 0.000000
vt 0.919687 0.720838
vt 0.896292 0.720838
vt 0.919687 0.000000
vt 0.943083 0.000000
vt 0.943083 0.720838
vt 0.919687 0.720838
vt 0.896292 0.000000
vt 0.896292 0.720838
vt 0.448146 0.720838
vt 0.448146 0.000000
vt 0.375125 0.912398
vt 0.408293 0.912398
vt 0.408293 1.000000
vt 0.375125 1.000000
vt 0.966478 0.470723
vt 0.999646 0.470723
vt 0.999646 0.558325
vt 0.966478 0.558325
vt 0.000000 0.912398
vt 0.000000 0.720838
vt 0.034453 0.720838
vt 0.034453 0.912398
vt 0.651604 0.756216
vt 0.617546 0.756216
vt 0.617546 0.720838
vt 0.651604 0.720838
vt 0.172264 0.912398
vt 0.172264 1.000000
vt 0.137811 1.000000
vt 0.137811 0.912398
vt 0.549430 0.756216
vt 0.515372 0.756216
vt 0.515372 0.720838
vt 0.549430 0.720838
vt 0.172264 0.720838
vt 0.137811 0.720838
vt 0.000000 1.000000
vt 0.034453 1.000000
vt 0.966478 0.279162
vt 0.999646 0.279162
vt 0.375125 0.720838
vt 0.408293 0.720838
vt 0.375125 0.912398
vt 0.375125 1.000000
vt 0.408293 1.000000
vt 0.408293 0.912398
vt 0.966478 0.470723
vt 0.966478 0.558325
vt 0.999646 0.558325
vt 0.999646 0.470723
vt 0.000000 0.912398
vt 0.034453 0.912398
vt 0.034453 0.720838
vt 0.000000 0.720838
vt 0.651604 0.756216
vt 0.651604 0.720838
vt 0.617546 0.720838
vt 0.617546 0.756216
vt 0.172264 0.912398
vt 0.137811 0.912398
vt 0.137811 1.000000
vt 0.172264 1.000000
vt 0.549430 0.756216
vt 0.549430 0.720838
vt 0.515372 0.720838
vt 0.515372 0.756216
vt 0.172264 0.720838
vt 0.137811 0.720838
vt 0.000000 1.000000
vt 0.034453 1.000000
vt 0.966478 0.279162
vt 0.999646 0.279162
vt 0.375125 0.720838
vt 0.408293 0.720838
vt 0.375125 0.912398
vt 0.375125 1.000000
vt 0.408293 1.000000
vt 0.408293 0.912398
vt 0.966478 0.470723
vt 0.966478 0.558325
vt 0.999646 0.558325
vt 0.999646 0.470723
vt 0.000000 0.912398
vt 0.034453 0.912398
vt 0.034453 0.720838
vt 0.000000 0.720838
vt 0.651604 0.756216
vt 0.651604 0.720838
vt 0.617546 0.720838
vt 0.617546 0.756216
vt 0.172264 0.912398
vt 0.137811 0.912398
vt 0.137811 1.000000
vt 0.172264 1.000000
vt 0.549430 0.756216
vt 0.549430 0.720838
vt 0.515372 0.720838
vt 0.515372 0.756216
vt 0.172264 0.720838
vt 0.137811 0.720838
vt 0.000000 1.000000
vt 0.034453 1.000000
vt 0.966478 0.279162
vt 0.999646 0.279162
vt 0.375125 0.720838
vt 0.408293 0.720838
vt 0.375125 0.912398
vt 0.408293 0.912398
vt 0.408293 1.000000
vt 0.375125 1.000000
vt 0.966478 0.470723
vt 0.999646 0.470723
vt 0.999646 0.558325
vt 0.966478 0.558325
vt 0.000000 0.912398
vt 0.000000 0.720838
vt 0.034453 0.720838
vt 0.034453 0.912398
vt 0.651604 0.756216
vt 0.617546 0.756216
vt 0.617546 0.720838
vt 0.651604 0.720838
vt 0.172264 0.912398
vt 0.172264 1.000000
vt 0.137811 1.000000
vt 0.137811 0.912398
vt 0.549430 0.756216
vt 0.515372 0.756216
vt 0.515372 0.720838
vt 0.549430 0.720838
vt 0.172264 0.720838
vt 0.137811 0.720838
vt 0.000000 1.000000
vt 0.034453 1.000000
vt 0.966478 0.279162
vt 0.999646 0.279162
vt 0.375125 0.720838
vt 0.408293 0.720838
vn 0.0000 1.0000 0.0000
vn 1.0000 0.0000 0.0000
vn -1.0000 0.0000 0.0000
vn 0.0000 0.0000 -1.0000
vn 0.0000 0.0000 1.0000
vn 0.0000 -1.0000 0.0000
vn 0.0043 0.0007 1.0000
vn -0.0039 -0.3956 -0.9184
vn 1.0000 -0.0003 -0.0064
vn -0.9482 -0.3176 0.0039
vn -0.9953 -0.0968 0.0063
vn 1.0000 -0.0009 -0.0041
vn -0.0064 -0.0900 -0.9959
vn 0.0065 0.0003 1.0000
vn -0.0043 0.0007 1.0000
vn 0.0039 -0.3956 -0.9184
vn -1.0000 -0.0003 -0.0064
vn 0.9482 -0.3176 0.0039
vn 0.9953 -0.0968 0.0063
vn -1.0000 -0.0009 -0.0041
vn 0.0064 -0.0900 -0.9959
vn -0.0065 0.0003 1.0000
vn 0.0043 0.0007 -1.0000
vn -0.0039 -0.3956 0.9184
vn 1.0000 -0.0003 0.0064
vn -0.9482 -0.3176 -0.0039
vn -0.9953 -0.0968 -0.0063
vn 1.0000 -0.0009 0.0041
vn -0.0064 -0.0900 0.9959
vn 0.0065 0.0003 -1.0000
vn -0.0043 0.0007 -1.0000
vn 0.0039 -0.3956 0.9184
vn -1.0000 -0.0003 0.0064
vn 0.9482 -0.3176 -0.0039
vn 0.9953 -0.0968 -0.0063
vn -1.0000 -0.0009 0.0041
vn 0.0064 -0.0900 0.9959
vn -0.0065 0.0003 -1.0000
g tutorial_tisch_Plane_Material.001
usemtl Material.001
s off
f 1/1/1 2/2/1 4/3/1 3/4/1
f 2/5/2 5/6/2 6/7/2 4/8/2
f 3/9/3 7/10/3 8/11/3 1/12/3
f 4/13/4 6/14/4 7/15/4 3/16/4
f 1/17/5 8/18/5 5/19/5 2/20/5
f 7/21/6 6/22/6 5/23/6 8/24/6
f 17/25/7 18/26/7 9/27/7 11/28/7
f 19/29/8 20/30/8 15/31/8 14/32/8
f 18/33/9 10/34/9 13/35/9 19/36/9
f 11/37/1 9/38/1 14/39/1 15/40/1
f 17/41/10 11/42/10 15/43/10 20/44/10
f 10/45/6 12/46/6 16/47/6 13/48/6
f 12/49/11 17/41/11 20/44/11 16/50/11
f 9/51/12 18/33/12 19/36/12 14/52/12
f 13/53/13 16/54/13 20/30/13 19/29/13
f 12/55/14 10/56/14 18/26/14 17/25/14
f 29/57/15 23/58/15 21/59/15 30/60/15
f 31/61/16 26/62/16 27/63/16 32/64/16
f 30/65/17 31/66/17 25/67/17 22/68/17
f 23/69/1 27/70/1 26/71/1 21/72/1
f 29/73/18 32/74/18 27/75/18 23/76/18
f 22/77/6 25/78/6 28/79/6 24/80/6
f 24/81/19 28/82/19 32/74/19 29/73/19
f 21/83/20 26/84/20 31/66/20 30/65/20
f 25/85/21 31/61/21 32/64/21 28/86/21
f 24/87/22 29/57/22 30/60/22 22/88/22
f 41/89/23 35/90/23 33/91/23 42/92/23
f 43/93/24 38/94/24 39/95/24 44/96/24
f 42/97/25 43/98/25 37/99/25 34/100/25
f 35/101/1 39/102/1 38/103/1 33/104/1
f 41/105/26 44/106/26 39/107/26 35/108/26
f 34/109/6 37/110/6 40/111/6 36/112/6
f 36/113/27 40/114/27 44/106/27 41/105/27
f 33/115/28 38/116/28 43/98/28 42/97/28
f 37/117/29 43/93/29 44/96/29 40/118/29
f 36/119/30 41/89/30 42/92/30 34/120/30
f 53/121/31 54/122/31 45/123/31 47/124/31
f 55/125/32 56/126/32 51/127/32 50/128/32
f 54/129/33 46/130/33 49/131/33 55/132/33
f 47/133/1 45/134/1 50/135/1 51/136/1
f 53/137/34 47/138/34 51/139/34 56/140/34
f 46/141/6 48/142/6 52/143/6 49/144/6
f 48/145/35 53/137/35 56/140/35 52/146/35
f 45/147/36 54/129/36 55/132/36 50/148/36
f 49/149/37 52/150/37 56/126/37 55/125/37
f 48/151/38 46/152/38 54/122/38 53/121/38
