# Blender v2.93.5 OBJ File: 'window1.blend'
# www.blender.org
mtllib window1.mtl
o window_Plane
v -0.801519 1.019888 -0.038248
v -0.763116 1.002225 -0.038248
v -0.087851 1.304849 -0.038248
v -0.083642 1.273647 -0.038248
v -0.373411 1.236957 -0.038248
v -0.392202 1.266433 -0.038248
v 0.763116 0.046689 -0.038248
v -0.763116 0.046689 -0.038248
v 0.083642 1.273647 -0.038248
v 0.087851 1.304849 -0.038248
v 0.593535 1.147277 -0.038248
v 0.623403 1.172240 -0.038248
v 0.373411 1.236957 0.000000
v 0.593535 1.147277 0.000000
v -0.593535 1.147277 -0.000000
v -0.373411 1.236957 -0.000000
v -0.801519 1.019888 -0.000000
v -0.801519 0.000000 -0.000000
v 0.801519 1.019888 0.000000
v 0.801519 0.000000 0.000000
v 0.087851 1.304849 0.000000
v -0.087851 1.304849 -0.000000
v -0.083642 1.273647 -0.000000
v 0.083642 1.273647 0.000000
v -0.392202 1.266433 -0.000000
v -0.623403 1.172240 -0.000000
v 0.763116 0.046689 0.000000
v 0.763116 1.002225 0.000000
v -0.763116 0.046689 -0.000000
v -0.763116 1.002225 -0.000000
v 0.623403 1.172240 0.000000
v 0.392202 1.266433 0.000000
v -0.623403 1.172240 -0.038248
v -0.801519 0.000000 -0.038248
v 0.801519 0.000000 -0.038248
v 0.801519 1.019888 -0.038248
v 0.392202 1.266433 -0.038248
v 0.763116 1.002225 -0.038248
v 0.373411 1.236957 -0.038248
v -0.593535 1.147277 -0.038248
v -0.763116 0.046689 0.142672
v 0.763116 0.046689 0.142672
v -0.801519 0.000000 0.142672
v 0.801519 0.000000 0.142672
v 0.246926 1.259199 -0.038248
v 0.259353 1.289538 0.000000
v 0.246926 1.259199 0.000000
v 0.259353 1.289538 -0.038248
v -0.259353 1.289538 -0.000000
v -0.259353 1.289538 -0.038248
v -0.246926 1.259199 -0.000000
v -0.246926 1.259199 -0.038248
v -0.517332 1.224424 -0.038248
v -0.492546 1.197205 -0.038248
v -0.517332 1.224424 -0.000000
v -0.492546 1.197205 -0.000000
v -0.712461 1.107512 -0.038248
v -0.712461 1.107512 -0.000000
v -0.678326 1.086199 -0.000000
v -0.678326 1.086199 -0.038248
v 0.492546 1.197205 -0.038248
v 0.492546 1.197205 0.000000
v 0.517332 1.224424 0.000000
v 0.517332 1.224424 -0.038248
v 0.678326 1.086199 -0.038248
v 0.712461 1.107512 -0.038248
v 0.712461 1.107512 0.000000
v 0.678326 1.086199 0.000000
v 0.241825 0.041380 -0.033228
v 0.280227 1.272686 -0.005020
v 0.280227 0.041380 -0.005020
v 0.241825 0.041380 -0.005020
v 0.241825 1.272686 -0.005020
v 0.280227 0.041380 -0.033228
v 0.280227 1.272686 -0.033228
v 0.241825 1.272686 -0.033228
v -0.285725 0.041380 -0.033228
v -0.247322 1.272686 -0.005020
v -0.247322 0.041380 -0.005020
v -0.285725 0.041380 -0.005020
v -0.285725 1.272686 -0.005020
v -0.247322 0.041380 -0.033228
v -0.247322 1.272686 -0.033228
v -0.285725 1.272686 -0.033228
v -0.777380 0.451452 -0.023227
v 0.771883 0.426362 -0.015021
v -0.777380 0.426362 -0.015021
v -0.777380 0.451452 -0.015021
v 0.771883 0.451452 -0.015021
v -0.777380 0.426362 -0.023227
v 0.771883 0.426362 -0.023227
v 0.771883 0.451452 -0.023227
v -0.777380 0.841914 -0.023227
v 0.771883 0.816824 -0.015021
v -0.777380 0.816824 -0.015021
v -0.777380 0.841914 -0.015021
v 0.771883 0.841914 -0.015021
v -0.777380 0.816824 -0.023227
v 0.771883 0.816824 -0.023227
v 0.771883 0.841914 -0.023227
vt 0.061216 0.762790
vt 0.037356 0.691719
vt 0.054097 0.681046
vt 0.076675 0.748712
vt 0.024232 0.321651
vt 0.037356 0.246196
vt 0.054097 0.256869
vt 0.041464 0.328709
vt 0.061216 0.175125
vt 0.090855 0.114879
vt 0.105033 0.131843
vt 0.076675 0.189203
vt 0.677763 0.847075
vt 0.229820 0.830440
vt 0.230486 0.812510
vt 0.678429 0.829146
vt 0.103902 0.589280
vt 0.118326 0.583660
vt 0.126565 0.643665
vt 0.112420 0.651961
vt 0.127619 0.064296
vt 0.177387 0.013714
vt 0.187419 0.035525
vt 0.139724 0.083684
vt 0.179816 0.128610
vt 0.190528 0.144238
vt 0.163503 0.185352
vt 0.151159 0.171804
vt 0.094641 0.654377
vt 0.086123 0.591696
vt 0.128746 0.222750
vt 0.111503 0.282455
vt 0.094202 0.277459
vt 0.111445 0.217753
vt 0.096419 0.426392
vt 0.110978 0.428320
vt 0.111169 0.506349
vt 0.096620 0.508348
vt 0.756658 0.924200
vt 0.177387 0.924200
vt 0.187419 0.902389
vt 0.730139 0.902388
vt 0.181345 0.804860
vt 0.191931 0.789229
vt 0.220871 0.848135
vt 0.129935 0.711351
vt 0.143127 0.700206
vt 0.164774 0.748417
vt 0.152552 0.761985
vt 0.756648 0.013713
vt 0.730130 0.035525
vt 0.756658 0.013708
vt 0.698982 0.064438
vt 0.677793 0.083442
vt 0.228323 0.102664
vt 0.219242 0.084955
vt 0.015536 0.518855
vt 0.015536 0.419060
vt 0.033258 0.421451
vt 0.033258 0.516464
vt 0.864887 0.013708
vt 0.864887 0.048044
vt 0.783853 0.048044
vt 0.783853 0.013708
vt 0.024232 0.616264
vt 0.041464 0.609206
vt 0.127619 0.873618
vt 0.090855 0.823036
vt 0.105033 0.806071
vt 0.139724 0.854230
vt 0.142048 0.233861
vt 0.125746 0.290702
vt 0.698982 0.865891
vt 0.103306 0.345412
vt 0.117787 0.350975
vt 0.128819 0.428276
vt 0.129010 0.506305
vt 0.698316 0.883821
vt 0.220205 0.866066
vt 0.136170 0.769302
vt 0.113553 0.718669
vt 0.241647 0.114777
vt 0.203853 0.156352
vt 0.961651 0.983328
vt 0.094815 0.983327
vt 0.094815 0.961604
vt 0.961651 0.961603
vt 0.218472 0.066964
vt 0.698213 0.046447
vt 0.143784 0.638621
vt 0.160346 0.695162
vt 0.129128 0.504678
vt 0.136291 0.581646
vt 0.078431 0.424862
vt 0.085318 0.343882
vt 0.143607 0.293032
vt 0.135782 0.353007
vt 0.678562 0.101433
vt 0.229092 0.120654
vt 0.078779 0.508392
vt 0.078578 0.426436
vt 0.969000 0.013708
vt 0.969000 0.924181
vt 0.947277 0.924181
vt 0.947276 0.013708
vt 0.136154 0.161849
vt 0.164810 0.118655
vt 0.179712 0.738478
vt 0.206868 0.779290
vt 0.179972 0.192636
vt 0.158518 0.241145
vt 0.207623 0.860235
vt 0.168097 0.816961
vt 0.757335 0.026233
vt 0.783853 0.914905
vt 0.757334 0.936718
vt 0.946599 0.013708
vt 0.946599 0.924194
vt 0.865565 0.924194
vt 0.865564 0.013708
vt 0.864887 0.914905
vt 0.864887 0.949241
vt 0.783853 0.949241
vt 0.128736 0.429911
vt 0.085449 0.343087
vt 0.093645 0.280130
vt 0.144156 0.641300
vt 0.085924 0.590898
vt 0.078642 0.509966
vt 0.159495 0.692856
vt 0.181142 0.741068
vt 0.112726 0.716426
vt 0.095211 0.657036
vt 0.166450 0.814863
vt 0.137657 0.771988
vt 0.205139 0.777085
vt 0.243028 0.818296
vt 0.159358 0.238826
vt 0.143056 0.295666
vt 0.112263 0.215498
vt 0.134676 0.164552
vt 0.166451 0.116540
vt 0.205877 0.072885
vt 0.205576 0.154130
vt 0.178551 0.195244
vt 0.624609 0.792347
vt 0.624609 0.152748
vt 0.644557 0.152748
vt 0.644556 0.792347
vt 0.679156 0.792347
vt 0.659208 0.792347
vt 0.659210 0.152748
vt 0.679157 0.152748
vt 0.693809 0.152748
vt 0.693809 0.792347
vt 0.344483 0.772368
vt 0.344483 0.179210
vt 0.362983 0.179210
vt 0.362982 0.772368
vt 0.395070 0.772368
vt 0.376571 0.772368
vt 0.376572 0.179210
vt 0.395070 0.179210
vt 0.408659 0.179210
vt 0.408659 0.772368
vt 0.590006 0.180441
vt 0.590005 0.766041
vt 0.579784 0.766053
vt 0.579784 0.180453
vt 0.559342 0.180521
vt 0.569564 0.180534
vt 0.569564 0.766134
vt 0.559342 0.766121
vt 0.549122 0.766202
vt 0.549122 0.180602
vt 0.515327 0.185362
vt 0.515327 0.770962
vt 0.505106 0.770974
vt 0.505106 0.185375
vt 0.484664 0.185443
vt 0.494886 0.185456
vt 0.494886 0.771055
vt 0.484664 0.771042
vt 0.474444 0.771123
vt 0.474444 0.185524
vn 0.0000 0.0000 1.0000
vn -1.0000 0.0000 0.0000
vn 0.0000 -0.0000 -1.0000
vn 0.1713 -0.9852 0.0000
vn -0.3183 -0.9480 0.0000
vn 0.7723 -0.6352 0.0000
vn 0.0000 1.0000 0.0000
vn 1.0000 0.0000 0.0000
vn 0.4414 -0.8973 0.0000
vn 0.7037 0.7105 0.0000
vn 0.0000 -1.0000 0.0000
vn -0.3165 0.9486 0.0000
vn -0.0881 0.9961 0.0000
vn -0.0889 -0.9960 0.0000
vn 0.1732 0.9849 0.0000
vn -0.5879 -0.8089 0.0000
vn -0.5845 0.8114 0.0000
vn 0.4432 0.8964 0.0000
vn 0.7013 -0.7128 0.0000
vn -0.7723 -0.6352 0.0000
vn 0.0881 0.9961 0.0000
vn -0.1713 -0.9852 0.0000
vn -0.1732 0.9849 0.0000
vn 0.0889 -0.9960 0.0000
vn -0.4432 0.8964 0.0000
vn 0.3183 -0.9480 0.0000
vn 0.5879 -0.8089 0.0000
vn -0.7037 0.7105 0.0000
vn 0.3165 0.9486 0.0000
vn -0.4414 -0.8973 0.0000
vn -0.7013 -0.7128 0.0000
vn 0.5845 0.8114 0.0000
g window_Plane_window
usemtl window
s off
f 64/1/1 37/2/1 39/3/1 61/4/1
f 50/5/1 6/6/1 5/7/1 52/8/1
f 53/9/1 33/10/1 40/11/1 54/12/1
f 29/13/2 30/14/2 2/15/2 8/16/2
f 49/17/3 51/18/3 16/19/3 25/20/3
f 57/21/1 1/22/1 2/23/1 60/24/1
f 67/25/3 68/26/3 14/27/3 31/28/3
f 49/17/4 25/20/4 6/29/4 50/30/4
f 63/31/5 32/32/5 37/33/5 64/34/5
f 21/35/3 24/36/3 23/37/3 22/38/3
f 35/39/1 36/40/1 38/41/1 7/42/1
f 58/43/3 59/44/3 30/14/3 17/45/3
f 55/46/3 56/47/3 15/48/3 26/49/3
f 1/22/1 34/50/1 8/51/1 2/23/1
f 34/52/1 35/39/1 7/42/1 8/51/1
f 20/53/3 27/54/3 28/55/3 19/56/3
f 10/57/1 3/58/1 4/59/1 9/60/1
f 18/61/6 29/62/6 41/63/6 43/64/6
f 48/65/1 10/57/1 9/60/1 45/66/1
f 66/67/1 12/68/1 11/69/1 65/70/1
f 63/31/3 62/71/3 13/72/3 32/32/3
f 17/45/3 30/14/3 29/13/3 18/73/3
f 46/74/3 47/75/3 24/36/3 21/35/3
f 23/37/7 24/36/7 9/76/7 4/77/7
f 17/45/8 18/73/8 34/78/8 1/79/8
f 55/46/9 26/49/9 33/80/9 53/81/9
f 68/26/10 28/55/10 38/82/10 65/83/10
f 27/84/11 29/85/11 8/86/11 7/87/11
f 20/53/2 19/56/2 36/88/2 35/89/2
f 56/47/12 16/19/12 5/90/12 54/91/12
f 51/18/13 23/37/13 4/92/13 52/93/13
f 46/74/14 21/35/14 10/94/14 48/95/14
f 47/75/15 13/72/15 39/96/15 45/97/15
f 28/55/8 27/54/8 7/98/8 38/99/8
f 21/35/11 22/38/11 3/100/11 10/101/11
f 18/102/7 20/103/7 35/104/7 34/105/7
f 67/25/16 31/28/16 12/106/16 66/107/16
f 59/44/17 15/48/17 40/108/17 60/109/17
f 62/71/18 14/27/18 11/110/18 61/111/18
f 58/43/19 17/45/19 1/112/19 57/113/19
f 43/114/3 41/63/3 42/115/3 44/116/3
f 20/117/7 18/118/7 43/119/7 44/120/7
f 27/121/20 20/122/20 44/123/20 42/115/20
f 29/62/11 27/121/11 42/115/11 41/63/11
f 24/36/21 47/75/21 45/97/21 9/124/21
f 32/32/22 46/74/22 48/125/22 37/126/22
f 32/32/3 13/72/3 47/75/3 46/74/3
f 37/2/1 48/65/1 45/66/1 39/3/1
f 16/19/23 51/18/23 52/93/23 5/127/23
f 22/38/24 49/17/24 50/128/24 3/129/24
f 22/38/3 23/37/3 51/18/3 49/17/3
f 3/58/1 50/5/1 52/8/1 4/59/1
f 15/48/25 56/47/25 54/130/25 40/131/25
f 25/20/26 55/46/26 53/132/26 6/133/26
f 25/20/3 16/19/3 56/47/3 55/46/3
f 6/6/1 53/9/1 54/12/1 5/7/1
f 26/49/27 58/43/27 57/134/27 33/135/27
f 30/14/28 59/44/28 60/136/28 2/137/28
f 26/49/3 15/48/3 59/44/3 58/43/3
f 33/10/1 57/21/1 60/24/1 40/11/1
f 13/72/29 62/71/29 61/138/29 39/139/29
f 31/28/3 14/27/3 62/71/3 63/31/3
f 31/28/30 63/31/30 64/140/30 12/141/30
f 12/68/1 64/1/1 61/4/1 11/69/1
f 19/56/31 67/25/31 66/142/31 36/143/31
f 14/27/32 68/26/32 65/144/32 11/145/32
f 36/40/1 66/67/1 65/70/1 38/41/1
f 19/56/3 28/55/3 68/26/3 67/25/3
f 74/146/1 75/147/1 76/148/1 69/149/1
f 71/150/3 72/151/3 73/152/3 70/153/3
f 71/150/2 70/153/2 75/154/2 74/155/2
f 73/152/8 72/151/8 69/149/8 76/148/8
f 82/156/1 83/157/1 84/158/1 77/159/1
f 79/160/3 80/161/3 81/162/3 78/163/3
f 79/160/2 78/163/2 83/164/2 82/165/2
f 81/162/8 80/161/8 77/159/8 84/158/8
f 90/166/1 91/167/1 92/168/1 85/169/1
f 87/170/3 88/171/3 89/172/3 86/173/3
f 87/170/7 86/173/7 91/174/7 90/175/7
f 89/172/11 88/171/11 85/169/11 92/168/11
f 98/176/1 99/177/1 100/178/1 93/179/1
f 95/180/3 96/181/3 97/182/3 94/183/3
f 95/180/7 94/183/7 99/184/7 98/185/7
f 97/182/11 96/181/11 93/179/11 100/178/11
