# Blender v2.93.5 OBJ File: 'wohnzimmer.blend'
# www.blender.org
mtllib wohnzimmer.mtl
o Cube
v 2.000000 2.500000 3.500000
v 2.000000 0.000000 3.500000
v 2.000000 2.500000 -3.500000
v 2.000000 0.000000 -3.500000
v -2.000000 2.500000 3.500000
v -2.000000 0.000000 3.500000
v -2.000000 2.500000 -3.500000
v -2.000000 0.000000 -3.500000
vt 4.396470 0.000000
vt 4.396470 1.000000
vt 7.593472 1.000000
vt 7.593472 -0.000000
vt 13.188225 1.000000
vt 13.188225 -0.000000
vt -1.198280 0.000001
vt -1.198278 1.000000
vt 16.385227 1.000000
vt 16.385227 0.000000
vt 0.625000 0.500000
vt 0.875000 0.500000
vt 0.875000 0.750000
vt 0.625000 0.750000
vt 0.000076 1.000000
vt 0.000076 0.000076
vt 0.999924 0.000076
vt 0.999924 1.000000
vn 0.0000 0.0000 1.0000
vn 1.0000 0.0000 0.0000
vn -1.0000 0.0000 0.0000
vn 0.0000 0.0000 -1.0000
vn 0.0000 -1.0000 0.0000
vn 0.0000 1.0000 0.0000
usemtl wallpaper
s off
f 4/1/1 3/2/1 7/3/1 8/4/1
f 8/4/2 7/3/2 5/5/2 6/6/2
f 2/7/3 1/8/3 3/2/3 4/1/3
f 6/6/4 5/5/4 1/9/4 2/10/4
usemtl ceiling
f 1/11/5 5/12/5 7/13/5 3/14/5
usemtl floor
f 6/15/6 2/16/6 4/17/6 8/18/6
