# Blender v2.93.5 OBJ File: 'wohnzimmer.blend'
# www.blender.org
mtllib wohnzimmer.mtl
o Cube
v 2.000000 2.500000 3.500000
v 2.000000 0.000000 3.500000
v 2.000000 2.500000 -3.500000
v 2.000000 0.000000 -3.500000
v -2.000000 2.500000 3.500000
v -2.000000 0.000000 3.500000
v -2.000000 2.500000 -3.500000
v -2.000000 0.000000 -3.500000
v -0.748041 0.000000 -3.499999
v 0.051959 0.000000 -3.499999
v 0.051957 2.000019 -3.500000
v -0.748044 1.999981 -3.499999
vt 7.593472 1.000000
vt 7.593472 -0.000000
vt 6.592613 -0.000000
vt 6.592818 0.798254
vt 13.188225 1.000000
vt 13.188225 -0.000000
vt -1.198280 0.000001
vt -1.198278 1.000000
vt 4.396470 1.000000
vt 4.396470 0.000000
vt 16.385227 1.000000
vt 16.385227 0.000000
vt 5.953438 0.798269
vt 5.953443 -0.000000
vt 0.625000 0.500000
vt 0.875000 0.500000
vt 0.875000 0.750000
vt 0.625000 0.750000
vt 0.000076 1.000000
vt 0.000076 0.000076
vt 0.999924 0.000076
vt 0.999924 0.487049
vt 0.999924 0.686962
vt 0.999924 1.000000
vn -0.0000 -0.0000 1.0000
vn 1.0000 0.0000 0.0000
vn -1.0000 0.0000 0.0000
vn 0.0000 0.0000 -1.0000
vn 0.0000 -1.0000 0.0000
vn 0.0000 1.0000 0.0000
g Cube_Cube_wallpaper
usemtl wallpaper
s off
f 7/1/1 8/2/1 9/3/1 12/4/1
f 8/2/2 7/1/2 5/5/2 6/6/2
f 2/7/3 1/8/3 3/9/3 4/10/3
f 6/6/4 5/5/4 1/11/4 2/12/4
f 4/10/1 3/9/1 11/13/1 10/14/1
f 3/9/1 7/1/1 12/4/1 11/13/1
g Cube_Cube_ceiling
usemtl ceiling
f 1/15/5 5/16/5 7/17/5 3/18/5
g Cube_Cube_floor
usemtl floor
f 6/19/6 2/20/6 4/21/6 10/22/6 9/23/6 8/24/6
